<svg width="184" height="68" viewBox="0 0 184 68" fill="none" xmlns="http://www.w3.org/2000/svg">
<path d="M61.5966 15.0718V29.6362C61.5966 33.0368 60.7205 36.4068 59.0661 39.3785C57.4118 42.3502 55.0037 44.8685 52.1117 46.6515L52.0872 46.6699L35.3905 56.7676L27.7253 53.0361V66.8653L21.5184 62.9561V43.1161L35.0657 49.709L48.8581 41.3699C52.9511 38.8332 55.3898 34.4522 55.3898 29.6423V18.889L34.98 8.58917L13.0567 19.6488V57.6315L6.84985 53.7224V15.8316L34.98 1.63477L61.5966 15.0718Z" fill="url(#paint0_linear_461_1031)"/>
<path d="M22.6031 22.332L34.2265 16.5479L45.7947 22.332L34.2265 28.0609" fill="url(#paint1_linear_461_1031)"/>
<path d="M20.955 24.0273V34.462L33.2646 40.4177V30.2649" fill="url(#paint2_linear_461_1031)"/>
<path d="M47.6082 24.0273V34.462L35.3047 40.4177V30.2649" fill="url(#paint3_linear_461_1031)"/>
<path d="M72.853 27.7729V34.0043H68.3066V15.3652H75.2182C76.5968 15.3652 77.7855 15.5184 78.7781 15.8309C79.7707 16.1434 80.5856 16.5723 81.229 17.1176C81.8723 17.6629 82.3441 18.3063 82.6505 19.0477C82.9568 19.7891 83.11 20.5918 83.11 21.4557C83.11 22.387 82.9507 23.2387 82.6382 24.0169C82.3257 24.795 81.8417 25.4568 81.1983 26.0144C80.555 26.5719 79.7339 27.0008 78.7413 27.3133C77.7487 27.6258 76.5784 27.779 75.2243 27.779H72.853V27.7729ZM72.853 24.5071H75.2182C76.4007 24.5071 77.2524 24.2375 77.7732 23.6983C78.294 23.1591 78.5514 22.4115 78.5514 21.4496C78.5514 21.0207 78.484 20.6347 78.3492 20.2854C78.2144 19.9361 78.0122 19.6359 77.7364 19.3847C77.4607 19.1335 77.1176 18.9374 76.7009 18.8026C76.2843 18.6678 75.788 18.6004 75.212 18.6004H72.853V24.5071Z" fill="#F5C541"/>
<path d="M85.2853 34.001V20.7356H87.7607C87.969 20.7356 88.1406 20.754 88.2815 20.7846C88.4224 20.8214 88.5388 20.8704 88.6307 20.9439C88.7227 21.0174 88.7962 21.1155 88.8452 21.2319C88.8942 21.3544 88.9371 21.4954 88.9739 21.6669L89.2006 22.9108C89.7091 22.1632 90.2851 21.5689 90.9223 21.1339C91.5596 20.6988 92.2519 20.4844 93.0056 20.4844C93.6428 20.4844 94.1514 20.6314 94.5374 20.9194L93.9982 23.836C93.9614 24.0137 93.8879 24.1423 93.7837 24.2159C93.6735 24.2894 93.5325 24.3261 93.3548 24.3261C93.2017 24.3261 93.024 24.3078 92.8156 24.271C92.6073 24.2342 92.35 24.2159 92.0375 24.2159C90.9407 24.2159 90.0829 24.7734 89.4518 25.8763V34.0133H85.2853V34.001Z" fill="#F5C541"/>
<path d="M102.178 20.5273C103.103 20.5273 103.949 20.6621 104.715 20.9379C105.48 21.2136 106.142 21.6057 106.694 22.1266C107.245 22.6474 107.674 23.2846 107.987 24.0382C108.293 24.7919 108.452 25.6497 108.452 26.6056C108.452 26.9058 108.44 27.1448 108.409 27.3347C108.385 27.5246 108.336 27.6717 108.262 27.782C108.189 27.8923 108.097 27.9719 107.974 28.0148C107.852 28.0577 107.699 28.0761 107.509 28.0761H99.4635C99.5983 29.1851 99.9537 29.9878 100.524 30.4902C101.1 30.9865 101.835 31.2377 102.742 31.2377C103.226 31.2377 103.642 31.1826 103.992 31.0723C104.341 30.962 104.653 30.8395 104.929 30.6985C105.205 30.5637 105.456 30.4412 105.683 30.3248C105.909 30.2145 106.148 30.1593 106.4 30.1593C106.73 30.1593 106.982 30.2758 107.153 30.5025L108.366 31.924C107.937 32.3958 107.472 32.7757 106.976 33.0698C106.479 33.3639 105.965 33.5967 105.444 33.7622C104.917 33.9276 104.396 34.044 103.869 34.1053C103.342 34.1666 102.846 34.2033 102.368 34.2033C101.387 34.2033 100.475 34.0501 99.6167 33.7499C98.7589 33.4497 98.0114 32.9963 97.368 32.4019C96.7247 31.8076 96.2222 31.0601 95.8485 30.1777C95.4747 29.2893 95.2909 28.2599 95.2909 27.0835C95.2909 26.195 95.4502 25.3556 95.7688 24.5652C96.0874 23.7748 96.547 23.0763 97.1413 22.4819C97.7357 21.8876 98.4587 21.4097 99.3042 21.0604C100.156 20.705 101.112 20.5273 102.178 20.5273ZM102.258 23.2662C101.461 23.2662 100.836 23.4807 100.389 23.9096C99.9415 24.3385 99.6412 24.9635 99.5003 25.7723H104.708C104.708 25.4598 104.666 25.1473 104.58 24.8532C104.494 24.5529 104.353 24.2895 104.163 24.0505C103.973 23.8177 103.716 23.6277 103.403 23.4807C103.091 23.3397 102.705 23.2662 102.258 23.2662Z" fill="#F5C541"/>
<path d="M110.652 34.0011V20.7357H113.237C113.495 20.7357 113.715 20.7908 113.887 20.9011C114.065 21.0114 114.187 21.1768 114.255 21.3974L114.481 22.1143C114.714 21.8815 114.959 21.6731 115.21 21.4832C115.462 21.2932 115.731 21.1278 116.025 20.9869C116.319 20.846 116.632 20.7357 116.969 20.656C117.306 20.5764 117.674 20.5335 118.078 20.5335C118.923 20.5335 119.616 20.7418 120.167 21.1523C120.719 21.569 121.135 22.1204 121.423 22.8067C121.656 22.3961 121.944 22.0469 122.275 21.7589C122.612 21.4709 122.974 21.232 123.366 21.0543C123.758 20.8766 124.168 20.7418 124.603 20.656C125.038 20.5702 125.474 20.5273 125.902 20.5273C126.699 20.5273 127.41 20.6376 128.029 20.8643C128.647 21.091 129.168 21.4219 129.585 21.8508C130.002 22.2797 130.32 22.8128 130.535 23.4378C130.749 24.0628 130.859 24.7735 130.859 25.5701V34.0011H126.687V25.5701C126.687 24.1976 126.068 23.5113 124.83 23.5113C124.266 23.5113 123.795 23.689 123.427 24.0444C123.053 24.3998 122.869 24.9083 122.869 25.5762V34.0072H118.697V25.5701C118.697 24.8103 118.537 24.2772 118.225 23.9708C117.912 23.6645 117.447 23.5113 116.84 23.5113C116.466 23.5113 116.105 23.591 115.768 23.7564C115.431 23.9157 115.118 24.1363 114.818 24.4059V34.0011H110.652Z" fill="#F5C541"/>
<path d="M138.414 17.1044C138.414 17.4231 138.347 17.7172 138.212 17.9929C138.077 18.2686 137.894 18.5137 137.661 18.722C137.428 18.9304 137.158 19.0958 136.846 19.2183C136.539 19.3409 136.209 19.4022 135.859 19.4022C135.516 19.4022 135.198 19.3409 134.903 19.2183C134.609 19.0958 134.346 18.9304 134.119 18.722C133.892 18.5137 133.709 18.2686 133.58 17.9929C133.451 17.7172 133.384 17.4169 133.384 17.1044C133.384 16.7797 133.451 16.4795 133.58 16.1976C133.709 15.9158 133.886 15.6707 134.119 15.4562C134.346 15.2418 134.609 15.0763 134.903 14.9599C135.198 14.8435 135.516 14.7822 135.859 14.7822C136.209 14.7822 136.539 14.8435 136.846 14.9599C137.152 15.0825 137.428 15.2479 137.661 15.4562C137.894 15.6707 138.077 15.9158 138.212 16.1976C138.347 16.4795 138.414 16.7797 138.414 17.1044ZM137.93 20.7379V34.0033H133.758V20.7379H137.93Z" fill="#F5C541"/>
<path d="M145.007 20.7373V29.1561C145.007 29.8117 145.167 30.3203 145.479 30.6757C145.791 31.0311 146.257 31.2149 146.864 31.2149C147.323 31.2149 147.752 31.123 148.15 30.9453C148.549 30.7676 148.935 30.5164 149.315 30.1916V20.7373H153.487V34.0028H150.902C150.381 34.0028 150.044 33.7822 149.878 33.3349L149.621 32.569C149.351 32.8141 149.076 33.0408 148.788 33.243C148.5 33.4452 148.193 33.6167 147.869 33.7577C147.544 33.8986 147.188 34.0089 146.815 34.0885C146.441 34.1682 146.024 34.2111 145.577 34.2111C144.817 34.2111 144.137 34.0824 143.555 33.8312C142.967 33.58 142.471 33.2307 142.066 32.7773C141.662 32.3239 141.355 31.7908 141.153 31.1781C140.945 30.5654 140.847 29.8914 140.847 29.1561V20.7373H145.007Z" fill="#F5C541"/>
<path d="M156.52 34.0011V20.7357H159.106C159.363 20.7357 159.584 20.7908 159.755 20.9011C159.933 21.0114 160.056 21.1768 160.123 21.3974L160.35 22.1143C160.583 21.8815 160.828 21.6731 161.079 21.4832C161.33 21.2932 161.6 21.1278 161.894 20.9869C162.188 20.846 162.5 20.7357 162.837 20.656C163.174 20.5764 163.542 20.5335 163.946 20.5335C164.792 20.5335 165.484 20.7418 166.036 21.1523C166.587 21.569 167.004 22.1204 167.292 22.8067C167.525 22.3961 167.813 22.0469 168.144 21.7589C168.481 21.4709 168.842 21.232 169.234 21.0543C169.626 20.8766 170.037 20.7418 170.472 20.656C170.907 20.5702 171.342 20.5273 171.771 20.5273C172.567 20.5273 173.278 20.6376 173.897 20.8643C174.516 21.091 175.037 21.4219 175.453 21.8508C175.87 22.2797 176.189 22.8128 176.403 23.4378C176.618 24.0628 176.728 24.7735 176.728 25.5701V34.0011H172.555V25.5701C172.555 24.1976 171.936 23.5113 170.699 23.5113C170.135 23.5113 169.663 23.689 169.296 24.0444C168.922 24.3998 168.738 24.9083 168.738 25.5762V34.0072H164.565V25.5701C164.565 24.8103 164.406 24.2772 164.094 23.9708C163.781 23.6645 163.315 23.5113 162.709 23.5113C162.335 23.5113 161.973 23.591 161.637 23.7564C161.3 23.9157 160.987 24.1363 160.687 24.4059V34.0011H156.52Z" fill="#F5C541"/>
<path d="M68.6558 58.1895V39.6914H75.3651C76.6395 39.6914 77.7241 39.8078 78.6248 40.0345C79.5255 40.2674 80.2669 40.5921 80.8428 41.021C81.4188 41.4499 81.8477 41.9646 82.1112 42.5712C82.3808 43.1778 82.5156 43.8579 82.5156 44.6177C82.5156 45.0527 82.4482 45.4694 82.3134 45.8677C82.1786 46.2659 81.9702 46.6336 81.6884 46.9828C81.4065 47.3259 81.045 47.6446 80.61 47.9203C80.175 48.2021 79.6541 48.4411 79.0537 48.6372C81.7251 49.207 83.0609 50.5795 83.0609 52.7547C83.0609 53.5389 82.9016 54.262 82.5891 54.9298C82.2766 55.5977 81.8171 56.1675 81.2166 56.6516C80.6161 57.1356 79.8747 57.5094 78.9985 57.7851C78.1223 58.0608 77.1175 58.1956 75.9839 58.1956H68.6558V58.1895ZM72.277 47.6997H75.169C76.3945 47.6997 77.3319 47.4852 77.9692 47.0625C78.6064 46.6336 78.925 45.9596 78.925 45.0282C78.925 44.0662 78.637 43.38 78.0611 42.9695C77.4851 42.5589 76.5905 42.3568 75.3712 42.3568H72.277V47.6997ZM72.277 50.0771V55.4997H75.9472C76.6212 55.4997 77.1849 55.42 77.6383 55.2668C78.0917 55.1136 78.4532 54.9114 78.7289 54.6541C79.0047 54.3968 79.2007 54.1026 79.3233 53.7595C79.4458 53.4164 79.5071 53.0549 79.5071 52.675C79.5071 52.2767 79.4397 51.9152 79.3049 51.5966C79.1701 51.278 78.9618 51.0023 78.6738 50.7756C78.3858 50.5489 78.0182 50.3773 77.5709 50.2547C77.1236 50.1383 76.5783 50.0771 75.941 50.0771H72.277Z" fill="#F5C541"/>
<path d="M91.7004 44.8535C92.7298 44.8535 93.6673 45.0128 94.5067 45.3253C95.3461 45.6439 96.063 46.0912 96.6512 46.6672C97.2456 47.2493 97.699 47.9539 98.0237 48.7933C98.3485 49.6266 98.5078 50.5641 98.5078 51.5935C98.5078 52.6351 98.3485 53.5726 98.0237 54.4059C97.699 55.2392 97.2456 55.9561 96.6512 56.5443C96.0569 57.1325 95.3461 57.5859 94.5067 57.8984C93.6673 58.2109 92.7359 58.3702 91.7004 58.3702C90.6711 58.3702 89.7336 58.2109 88.888 57.8984C88.0425 57.5859 87.3256 57.1325 86.7313 56.5443C86.1369 55.9561 85.6712 55.2453 85.3465 54.4059C85.0218 53.5726 84.8563 52.629 84.8563 51.5935C84.8563 50.5641 85.0218 49.6266 85.3465 48.7933C85.6712 47.96 86.1369 47.2493 86.7313 46.6672C87.3256 46.0851 88.0486 45.6378 88.888 45.3253C89.7336 45.0128 90.6649 44.8535 91.7004 44.8535ZM91.7004 55.9499C92.8462 55.9499 93.6979 55.5823 94.2494 54.847C94.8008 54.1118 95.0765 53.0395 95.0765 51.6241C95.0765 50.2087 94.8008 49.1303 94.2494 48.3889C93.6979 47.6475 92.8462 47.2738 91.7004 47.2738C90.5363 47.2738 89.6723 47.6475 89.1147 48.3951C88.5572 49.1426 88.2814 50.221 88.2814 51.6241C88.2814 53.0272 88.5572 54.1056 89.1147 54.8409C89.6723 55.5762 90.5363 55.9499 91.7004 55.9499Z" fill="#F5C541"/>
<path d="M103.373 51.4148L98.8385 45.0547H102.037C102.282 45.0547 102.46 45.0853 102.576 45.1527C102.693 45.214 102.797 45.3243 102.882 45.4652L105.775 49.8523C105.817 49.7053 105.873 49.5643 105.94 49.4173C106.007 49.2702 106.087 49.1293 106.191 48.9822L108.52 45.5265C108.63 45.3672 108.74 45.2446 108.857 45.1711C108.973 45.0915 109.114 45.0547 109.285 45.0547H112.337L107.79 51.2738L112.527 58.1853H109.328C109.083 58.1853 108.893 58.1241 108.746 58.0077C108.599 57.8912 108.477 57.7503 108.379 57.5971L105.444 53.0323C105.364 53.3387 105.254 53.596 105.107 53.7982L102.521 57.5971C102.423 57.7442 102.3 57.879 102.159 58.0015C102.019 58.1241 101.835 58.1853 101.62 58.1853H98.6486L103.373 51.4148Z" fill="#F5C541"/>
<path d="M119.34 44.8535C120.21 44.8535 121.013 44.9883 121.742 45.2518C122.471 45.5153 123.102 45.9013 123.629 46.4098C124.156 46.9184 124.573 47.5372 124.867 48.2786C125.161 49.0139 125.308 49.8595 125.308 50.8031C125.308 51.042 125.296 51.2381 125.278 51.3974C125.253 51.5567 125.216 51.6793 125.155 51.7712C125.094 51.8631 125.02 51.9243 124.922 51.9611C124.824 51.9979 124.696 52.0162 124.549 52.0162H116.019C116.117 53.3642 116.497 54.3507 117.165 54.9818C117.827 55.6129 118.709 55.9315 119.8 55.9315C120.339 55.9315 120.805 55.8703 121.191 55.7539C121.583 55.6374 121.92 55.5026 122.214 55.3556C122.508 55.2085 122.759 55.0799 122.98 54.9573C123.201 54.8409 123.415 54.7796 123.617 54.7796C123.752 54.7796 123.868 54.8041 123.966 54.8593C124.064 54.9083 124.15 54.9818 124.224 55.0737L125.192 56.2257C124.824 56.6362 124.414 56.9793 123.954 57.255C123.495 57.5308 123.017 57.7513 122.52 57.9229C122.024 58.0883 121.516 58.2047 121.001 58.2721C120.486 58.3395 119.984 58.3763 119.5 58.3763C118.538 58.3763 117.649 58.2231 116.822 57.9229C115.995 57.6227 115.278 57.1754 114.671 56.581C114.059 55.9867 113.581 55.2576 113.232 54.3814C112.882 53.5052 112.705 52.4942 112.705 51.3423C112.705 50.4477 112.858 49.6021 113.164 48.8178C113.47 48.0274 113.906 47.3412 114.475 46.7591C115.045 46.177 115.738 45.7113 116.559 45.3682C117.386 45.0251 118.311 44.8535 119.34 44.8535ZM119.408 47.1206C118.44 47.1206 117.68 47.3779 117.135 47.8987C116.589 48.4196 116.24 49.1548 116.087 50.1107H122.33C122.33 49.7002 122.269 49.3141 122.153 48.9526C122.036 48.5911 121.859 48.2725 121.614 47.9968C121.368 47.7211 121.068 47.5066 120.701 47.3534C120.333 47.2002 119.904 47.1206 119.408 47.1206Z" fill="#F5C541"/>
<path d="M136.019 47.6191C135.927 47.7539 135.835 47.8519 135.737 47.9071C135.639 47.9622 135.51 47.9929 135.363 47.9929C135.204 47.9929 135.026 47.95 134.842 47.8642C134.658 47.7784 134.444 47.6804 134.205 47.5762C133.96 47.4721 133.684 47.374 133.378 47.2882C133.071 47.2025 132.704 47.1596 132.281 47.1596C131.625 47.1596 131.111 47.2944 130.737 47.5578C130.363 47.8213 130.173 48.1706 130.173 48.5933C130.173 48.8752 130.271 49.1142 130.461 49.3041C130.651 49.494 130.908 49.6656 131.227 49.8065C131.546 49.9536 131.907 50.0823 132.312 50.1987C132.716 50.3151 133.126 50.4376 133.549 50.5786C133.972 50.7134 134.383 50.8727 134.787 51.0442C135.191 51.2219 135.553 51.4425 135.871 51.7121C136.19 51.9817 136.447 52.3003 136.637 52.6802C136.827 53.054 136.925 53.5074 136.925 54.0343C136.925 54.6654 136.803 55.2475 136.564 55.7806C136.319 56.3137 135.97 56.7732 135.504 57.1653C135.038 57.5514 134.462 57.8577 133.776 58.0722C133.09 58.2866 132.305 58.3969 131.417 58.3969C130.939 58.3969 130.48 58.354 130.026 58.2744C129.573 58.1947 129.138 58.0783 128.721 57.9374C128.304 57.7903 127.918 57.6249 127.563 57.4227C127.208 57.2266 126.895 57.0122 126.625 56.7855L127.385 55.5784C127.483 55.4313 127.6 55.321 127.735 55.2475C127.869 55.174 128.041 55.1311 128.243 55.1311C128.451 55.1311 128.641 55.1862 128.825 55.2965C129.009 55.4068 129.223 55.5294 129.462 55.6519C129.707 55.7806 129.989 55.897 130.314 56.0073C130.639 56.1176 131.055 56.1727 131.558 56.1727C131.95 56.1727 132.293 56.1298 132.575 56.0379C132.857 55.946 133.09 55.8296 133.274 55.6887C133.457 55.5416 133.592 55.3762 133.678 55.1862C133.764 54.9963 133.807 54.7941 133.807 54.5919C133.807 54.2855 133.709 54.0343 133.519 53.8383C133.329 53.6422 133.071 53.4706 132.753 53.3236C132.434 53.1765 132.073 53.0478 131.662 52.9314C131.252 52.815 130.835 52.6925 130.412 52.5515C129.983 52.4167 129.567 52.2574 129.162 52.0736C128.752 51.8898 128.39 51.657 128.072 51.3751C127.753 51.0933 127.496 50.7501 127.306 50.3396C127.116 49.9291 127.018 49.4328 127.018 48.8568C127.018 48.3176 127.128 47.8091 127.355 47.3189C127.581 46.8348 127.906 46.4059 128.341 46.0444C128.776 45.6829 129.321 45.3949 129.971 45.1744C130.62 44.9599 131.374 44.8496 132.226 44.8496C133.175 44.8496 134.039 44.9967 134.824 45.2969C135.602 45.5971 136.251 45.9893 136.772 46.4733L136.019 47.6191Z" fill="#F5C541"/>
<defs>
<linearGradient id="paint0_linear_461_1031" x1="-48.8134" y1="-22.4596" x2="130.787" y2="100.51" gradientUnits="userSpaceOnUse">
<stop stop-color="#DF9229"/>
<stop offset="0.514" stop-color="#F5C541"/>
</linearGradient>
<linearGradient id="paint1_linear_461_1031" x1="-43.1981" y1="-30.6611" x2="136.403" y2="92.3088" gradientUnits="userSpaceOnUse">
<stop stop-color="#DF9229"/>
<stop offset="0.514" stop-color="#F5C541"/>
</linearGradient>
<linearGradient id="paint2_linear_461_1031" x1="-50.1393" y1="-20.5251" x2="129.461" y2="102.445" gradientUnits="userSpaceOnUse">
<stop stop-color="#DF9229"/>
<stop offset="0.514" stop-color="#F5C541"/>
</linearGradient>
<linearGradient id="paint3_linear_461_1031" x1="-45.4944" y1="-27.3095" x2="134.106" y2="95.6604" gradientUnits="userSpaceOnUse">
<stop stop-color="#DF9229"/>
<stop offset="0.514" stop-color="#F5C541"/>
</linearGradient>
</defs>
</svg>
