<svg width="40" height="40" viewBox="0 0 40 40" fill="none" xmlns="http://www.w3.org/2000/svg">
<path d="M20 3.33333C10.8 3.33333 3.33334 10.8 3.33334 20C3.33334 29.2 10.8 36.6667 20 36.6667C29.2 36.6667 36.6667 29.2 36.6667 20C36.6667 10.8 29.2 3.33333 20 3.33333ZM20 33.3333C12.6333 33.3333 6.66668 27.3667 6.66668 20C6.66668 12.6333 12.6333 6.66667 20 6.66667C27.3667 6.66667 33.3333 12.6333 33.3333 20C33.3333 27.3667 27.3667 33.3333 20 33.3333ZM18.3333 23.9667L27.15 15.15L29.5 17.5L18.3333 28.6667L10.8333 21.1667L13.1833 18.8167L18.3333 23.9667Z" fill="#F5C542"/>
</svg>
