<svg width="36" height="36" viewBox="0 0 36 36" fill="none" xmlns="http://www.w3.org/2000/svg">
<g clip-path="url(#clip0_352_2872)">
<path d="M36 18C36 27.9255 27.9255 36 18 36C11.9175 36 6.3075 32.9115 3.006 27.945L3 30C3 30.8295 2.328 31.5 1.5 31.5C0.672 31.5 0 30.8295 0 30V25.5135C0 23.853 1.3515 22.5 3.012 22.5H7.5C8.328 22.5 9 23.1705 9 24C9 24.8295 8.328 25.5 7.5 25.5H5.0445C7.7085 30.09 12.6225 33 18 33C26.271 33 33 26.271 33 18C33 17.1705 33.6705 16.5 34.5 16.5C35.3295 16.5 36 17.1705 36 18ZM34.5 4.5C33.6705 4.5 33 5.1705 33 6L32.994 8.0325C29.7105 3.06 24.1605 0 18 0C8.0745 0 0 8.0745 0 18C0 18.8295 0.672 19.5 1.5 19.5C2.328 19.5 3 18.8295 3 18C3 9.729 9.729 3 18 3C23.46 3 28.35 5.8815 30.999 10.5H28.5C27.6705 10.5 27 11.1705 27 12C27 12.8295 27.6705 13.5 28.5 13.5H33C34.6575 13.5 36 12.1575 36 10.5V6C36 5.1705 35.3295 4.5 34.5 4.5ZM15 25.5C12.519 25.5 10.5 23.481 10.5 21V15C10.5 12.519 12.519 10.5 15 10.5H21C23.481 10.5 25.5 12.519 25.5 15V21C25.5 23.481 23.481 25.5 21 25.5H15ZM15 22.5H21C21.828 22.5 22.5 21.828 22.5 21V15C22.5 14.172 21.828 13.5 21 13.5H15C14.1735 13.5 13.5 14.172 13.5 15V21C13.5 21.828 14.1735 22.5 15 22.5ZM17.25 18H18.75C19.5795 18 20.25 17.3295 20.25 16.5C20.25 15.6705 19.5795 15 18.75 15H17.25C16.422 15 15.75 15.6705 15.75 16.5C15.75 17.3295 16.422 18 17.25 18Z" fill="#F5C542"/>
</g>
<defs>
<clipPath id="clip0_352_2872">
<rect width="36" height="36" fill="white"/>
</clipPath>
</defs>
</svg>
