<svg width="40" height="40" viewBox="0 0 40 40" fill="none" xmlns="http://www.w3.org/2000/svg">
<g clip-path="url(#clip0_352_2933)">
<path d="M38.2099 10.4401C40.5933 8.05342 40.5933 4.17509 38.2099 1.79342C35.8266 -0.593249 31.9433 -0.593249 29.5616 1.79342L11.3333 20.0184C8.81826 19.8801 6.25826 20.7701 4.33992 22.6868C1.83826 25.1901 0.424924 32.2551 0.0282569 35.6384C-0.111743 36.8268 0.29159 37.9918 1.13492 38.8351C1.86659 39.5684 2.84326 39.9701 3.86826 39.9701C4.02326 39.9701 4.17826 39.9601 4.33159 39.9418C4.73326 39.8951 14.2283 38.7451 17.3133 35.6601C19.2299 33.7434 20.1183 31.1834 19.9799 28.6684L38.2099 10.4401ZM14.9549 33.3018C13.5316 34.7251 8.12992 36.1368 3.93992 36.6301C3.71492 36.6651 3.55992 36.5468 3.48992 36.4767C3.42159 36.4084 3.30992 36.2584 3.33659 36.0251C3.82659 31.8551 5.29326 26.4468 6.69659 25.0418C7.83659 23.9034 9.32992 23.3351 10.8266 23.3351C12.3233 23.3351 13.8166 23.9051 14.9566 25.0418C17.2333 27.3184 17.2333 31.0234 14.9566 33.3001L14.9549 33.3018ZM17.3116 22.6868C16.6266 22.0018 15.8583 21.4468 15.0399 21.0251L31.9166 4.14842C32.9999 3.06509 34.7683 3.06509 35.8516 4.14842C36.9349 5.23175 36.9349 6.99675 35.8516 8.08175L18.9733 24.9584C18.5499 24.1401 17.9966 23.3718 17.3116 22.6868Z" fill="#F5C542"/>
<path d="M7.87012 16.5166C8.19512 16.8416 8.62179 17.0049 9.04845 17.0049C9.47512 17.0049 9.90179 16.8416 10.2268 16.5166C10.8785 15.8649 10.8785 14.8116 10.2268 14.1599L4.15012 8.08328C3.06512 6.99828 3.06512 5.23328 4.15012 4.14828C5.23512 3.06495 7.00179 3.06495 8.08345 4.14828L14.1601 10.2266C14.8118 10.8783 15.8651 10.8783 16.5168 10.2266C17.1685 9.57495 17.1685 8.52161 16.5168 7.86995L10.4401 1.79161C8.05345 -0.591719 4.17512 -0.591719 1.79179 1.78995C-0.591546 4.17161 -0.593213 8.05495 1.79179 10.4383L7.86845 16.5149L7.87012 16.5166Z" fill="#F5C542"/>
<path d="M37.0699 28.4232L32.1449 23.4966C31.4932 22.8449 30.4399 22.8449 29.7882 23.4966C29.1366 24.1482 29.1366 25.2016 29.7882 25.8532L34.7132 30.7799C35.9549 32.0199 36.6666 33.7366 36.6666 35.4932V36.6666H35.4949C33.7132 36.6666 32.0382 35.9732 30.7799 34.7132L25.8532 29.7882C25.2016 29.1366 24.1482 29.1366 23.4966 29.7882C22.8449 30.4399 22.8449 31.4932 23.4966 32.1449L28.4232 37.0699C30.3099 38.9599 32.8232 39.9999 35.4949 39.9999H38.3332C39.2549 39.9999 39.9999 39.2549 39.9999 38.3332V35.4932C39.9999 32.8599 38.9316 30.2816 37.0699 28.4232Z" fill="#F5C542"/>
</g>
<defs>
<clipPath id="clip0_352_2933">
<rect width="40" height="40" fill="white"/>
</clipPath>
</defs>
</svg>
