<svg width="36" height="36" viewBox="0 0 36 36" fill="none" xmlns="http://www.w3.org/2000/svg">
<g clip-path="url(#clip0_352_2894)">
<path d="M3 3C3 1.3425 4.3425 0 6 0C7.6575 0 9 1.3425 9 3C9 4.6575 7.6575 6 6 6C4.3425 6 3 4.6575 3 3ZM9 13.5H18V11.25C18 10.008 16.992 9 15.75 9H11.25C10.008 9 9 10.008 9 11.25V13.5ZM13.5 7.5C15.1575 7.5 16.5 6.1575 16.5 4.5C16.5 2.8425 15.1575 1.5 13.5 1.5C11.8425 1.5 10.5 2.8425 10.5 4.5C10.5 6.1575 11.8425 7.5 13.5 7.5ZM21 6C22.6575 6 24 4.6575 24 3C24 1.3425 22.6575 0 21 0C19.3425 0 18 1.3425 18 3C18 4.6575 19.3425 6 21 6ZM6 11.25C6 9.78 6.6105 8.454 7.587 7.5H3.75C2.508 7.5 1.5 8.508 1.5 9.75V12H6V11.25ZM19.413 7.5C20.3895 8.454 21 9.78 21 11.25V12H25.5V9.75C25.5 8.508 24.492 7.5 23.25 7.5H19.413ZM34.854 19.5225L20.1735 36H4.5C2.019 36 0 33.981 0 31.5V21C0 18.519 2.019 16.5 4.5 16.5H19.2855C20.994 16.5 22.494 17.4135 23.319 18.7785L28.1445 13.4775C28.9545 12.585 30.066 12.0615 31.272 12.006C32.49 11.9475 33.633 12.366 34.5255 13.179C36.3465 14.8395 36.4935 17.6865 34.8525 19.524L34.854 19.5225ZM32.5065 15.3945C32.208 15.123 31.8225 14.991 31.4145 15.0015C31.0095 15.021 30.636 15.195 30.366 15.495L23.7255 22.791C23.148 24.3975 21.717 25.6275 19.9545 25.8795L12.213 26.985L11.7885 24.0165L19.53 22.911C20.3685 22.791 21 22.062 21 21.2145C21 20.2695 20.2305 19.5015 19.2855 19.5015H4.5C3.672 19.5015 3 20.175 3 21.0015V31.5015C3 32.328 3.672 33.0015 4.5 33.0015H18.828L32.613 17.5275C33.165 16.9095 33.1155 15.954 32.505 15.396L32.5065 15.3945Z" fill="#F5C542"/>
</g>
<defs>
<clipPath id="clip0_352_2894">
<rect width="36" height="36" fill="white"/>
</clipPath>
</defs>
</svg>
