<svg width="36" height="36" viewBox="0 0 36 36" fill="none" xmlns="http://www.w3.org/2000/svg">
<g clip-path="url(#clip0_352_2887)">
<path d="M12.0001 13.6126L16.5001 16.1851V21.7246L13.5121 20.0161C12.5776 19.4821 12.0001 18.4876 12.0001 17.4121V13.6126ZM35.8006 29.5696C35.3431 30.8926 34.1971 31.8031 32.8036 31.9486L31.6876 32.0626L31.5676 32.9281C31.3546 34.6666 29.7781 36.0181 28.0381 36.0001C27.1261 36.0001 26.2366 35.6476 25.5586 34.9831L19.9711 29.5681C19.3336 29.8306 18.6646 30.0016 17.9821 30.0016C17.3086 30.0016 16.6486 29.8336 16.0186 29.5786L10.4371 34.9876C9.76206 35.6476 8.87406 36.0001 7.96356 36.0001C6.22206 36.0196 4.64556 34.6681 4.43256 32.9296L4.31256 32.0626L3.19656 31.9486C1.80306 31.8031 0.657063 30.8926 0.199563 29.5696C-0.257937 28.2466 0.0855627 26.8201 1.09206 25.8496L5.87556 21.2086C5.99706 20.5921 6.11556 19.9021 5.45556 19.5046C4.70856 19.0231 4.10106 18.3676 3.65256 17.5576C3.22506 16.7836 3.00006 15.8986 3.00456 14.9926C3.00006 14.1016 3.22356 13.2166 3.65256 12.4426C4.10106 11.6326 4.70856 10.9786 5.45706 10.4956C5.85906 10.2361 6.06306 9.77707 5.96706 9.34957C5.76456 8.46157 5.79456 7.55257 6.05406 6.64357C6.54906 4.92157 7.92606 3.54457 9.64806 3.05107C10.5571 2.79007 11.4661 2.76307 12.3526 2.96107C12.7876 3.05557 13.2421 2.85307 13.5001 2.45107C13.9831 1.70257 14.6386 1.09807 15.4456 0.64957C17.0101 -0.22043 18.9586 -0.22043 20.5246 0.64957C21.3331 1.09957 21.9886 1.70407 22.4701 2.45257C22.7311 2.85607 23.1946 3.04957 23.6176 2.96407C24.5056 2.76157 25.4161 2.79307 26.3221 3.05107C28.0456 3.54607 29.4226 4.92307 29.9161 6.64357C30.1771 7.55257 30.2056 8.46307 30.0061 9.34957C29.9086 9.77707 30.1126 10.2376 30.5161 10.4971C31.2646 10.9816 31.8706 11.6371 32.3191 12.4441C32.7466 13.2181 32.9716 14.1031 32.9671 15.0091C32.9716 15.9001 32.7481 16.7851 32.3191 17.5591C31.8706 18.3661 31.2646 19.0216 30.5161 19.5046C29.8741 19.8931 29.9611 20.5651 30.0886 21.1696L34.9126 25.8496C35.9191 26.8201 36.2611 28.2481 35.8051 29.5696H35.8006ZM13.6351 27.7111C13.3426 27.2731 12.8671 26.9086 12.3511 27.0376C11.4616 27.2386 10.5511 27.2071 9.64656 26.9506C8.38806 26.5891 7.32606 25.7506 6.64506 24.6601L3.17256 28.0081C2.79756 28.3846 3.00456 28.9171 3.50256 28.9636L5.78856 29.1991C6.47556 29.2711 7.02606 29.8006 7.12056 30.4861L7.40106 32.5171C7.46706 32.9986 7.94406 33.1831 8.34306 32.8381L13.6336 27.7096L13.6351 27.7111ZM24.2791 24.1126C24.6691 24.1996 25.0771 24.1846 25.4956 24.0646C26.2186 23.8576 26.8231 23.2546 27.0301 22.5316C27.1486 22.1146 27.1651 21.7036 27.0751 21.3136C26.7001 19.6636 27.4276 17.9221 28.8856 16.9816C29.5261 16.5706 29.9776 15.8026 29.9626 15.0076C29.9776 14.1931 29.5336 13.4386 28.8856 13.0171C27.4276 12.0781 26.7001 10.3366 27.0766 8.68507C27.1651 8.29657 27.1486 7.88707 27.0286 7.46707C26.8216 6.74557 26.2186 6.14107 25.4941 5.93407C25.0771 5.81857 24.6691 5.79907 24.2776 5.88907C22.6321 6.26557 20.8861 5.53807 19.9456 4.07857C19.7341 3.75007 19.4386 3.48007 19.0666 3.27307C18.4081 2.91007 17.5576 2.90857 16.8961 3.27307C16.5256 3.47857 16.2301 3.74857 16.0171 4.07707C15.0766 5.53807 13.3351 6.27157 11.6851 5.88607C11.2966 5.80057 10.8886 5.81407 10.4686 5.93407C9.74556 6.14107 9.14106 6.74407 8.93406 7.46707C8.81556 7.88407 8.79906 8.29507 8.88906 8.68507C9.26406 10.3351 8.53656 12.0766 7.07856 13.0171C6.43806 13.4266 5.98656 14.1961 6.00156 14.9911C5.98656 15.8041 6.43056 16.5616 7.07706 16.9801C8.53656 17.9206 9.26406 19.6621 8.88756 21.3136C8.79906 21.7021 8.81556 22.1116 8.93556 22.5316C9.14256 23.2531 9.74556 23.8576 10.4701 24.0646C11.1931 24.3151 11.8486 24.0076 12.5581 24.0136C13.9216 24.0136 15.2416 24.7186 16.0186 25.9201C16.2301 26.2486 16.5256 26.5186 16.8976 26.7256C17.5561 27.0886 18.4066 27.0901 19.0681 26.7256C19.4386 26.5201 19.7341 26.2501 19.9471 25.9216C20.8876 24.4621 22.6351 23.7316 24.2791 24.1126ZM32.8246 28.0081L29.3326 24.6421C28.6531 25.7431 27.5821 26.5876 26.3191 26.9491C25.4086 27.2086 24.4996 27.2356 23.6146 27.0391C23.0956 26.9086 22.6351 27.2596 22.3456 27.6946L27.6496 32.8351C28.0336 33.1471 28.5166 33.0271 28.5961 32.5171L28.8766 30.4876C28.9696 29.8021 29.5216 29.2726 30.2086 29.2006L32.4946 28.9651C32.9746 28.9141 33.2461 28.4281 32.8246 28.0081ZM19.4716 9.13507C18.5551 8.61757 17.4331 8.61757 16.5181 9.13507L13.2391 10.9921L18.0031 13.7146L22.7641 10.9936L19.4716 9.13507ZM24.0001 13.6156L19.5001 16.1881V21.7501L22.4566 20.1091C23.4091 19.5796 24.0001 18.5761 24.0001 17.4856V13.6156Z" fill="#F5C542"/>
</g>
<defs>
<clipPath id="clip0_352_2887">
<rect width="36" height="36" fill="white"/>
</clipPath>
</defs>
</svg>
