<svg width="36" height="36" viewBox="0 0 36 36" fill="none" xmlns="http://www.w3.org/2000/svg">
<g clip-path="url(#clip0_352_2879)">
<path d="M18 0C8.0745 0 0 8.0745 0 18C0 27.9255 8.0745 36 18 36C27.9255 36 36 27.9255 36 18C36 8.0745 27.9255 0 18 0ZM18 33C9.729 33 3 26.271 3 18C3 9.729 9.729 3 18 3C26.271 3 33 9.729 33 18C33 26.271 26.271 33 18 33ZM24 21C24 23.481 21.981 25.5 19.5 25.5V27C19.5 27.8295 18.8295 28.5 18 28.5C17.1705 28.5 16.5 27.8295 16.5 27V25.5H16.098C14.4975 25.5 13.0035 24.639 12.201 23.2515C11.7855 22.533 12.0315 21.6165 12.747 21.2025C13.4655 20.784 14.3835 21.033 14.796 21.7485C15.0645 22.2135 15.5625 22.5 16.0965 22.5H19.4985C20.3265 22.5 20.9985 21.828 20.9985 21C20.9985 20.433 20.592 19.953 20.0325 19.86L15.471 19.0995C13.458 18.765 11.9985 17.04 11.9985 15C11.9985 12.519 14.0175 10.5 16.4985 10.5V9C16.4985 8.172 17.169 7.5 17.9985 7.5C18.828 7.5 19.4985 8.172 19.4985 9V10.5H19.9005C21.501 10.5 22.995 11.3625 23.7975 12.75C24.213 13.467 23.967 14.3835 23.2515 14.799C22.5315 15.2145 21.615 14.9685 21.2025 14.2515C20.934 13.788 20.436 13.5015 19.902 13.5015H16.5C15.672 13.5015 15 14.175 15 15.0015C15 15.5685 15.4065 16.0485 15.966 16.1415L20.5275 16.902C22.5405 17.2365 24 18.9615 24 21.0015V21Z" fill="#F5C542"/>
</g>
<defs>
<clipPath id="clip0_352_2879">
<rect width="36" height="36" fill="white"/>
</clipPath>
</defs>
</svg>
