<svg width="40" height="40" viewBox="0 0 40 40" fill="none" xmlns="http://www.w3.org/2000/svg">
<path d="M40 16.6667C40 12.0717 36.2617 8.33342 31.6667 8.33342H28.3333V6.66675C28.3333 3.91008 26.09 1.66675 23.3333 1.66675H20V5.00008H23.3333C24.2533 5.00008 25 5.74841 25 6.66675V28.3334H3.33333V21.6667H0V31.6667H3.395C3.355 31.9417 3.33333 32.2184 3.33333 32.5001C3.33333 35.7168 5.95 38.3334 9.16667 38.3334C12.3833 38.3334 15 35.7168 15 32.5001C15 32.2184 14.9783 31.9417 14.9383 31.6667H25.0617C25.0217 31.9417 25 32.2184 25 32.5001C25 35.7168 27.6167 38.3334 30.8333 38.3334C34.05 38.3334 36.6667 35.7168 36.6667 32.5001C36.6667 32.2184 36.645 31.9417 36.605 31.6667H40V16.6667ZM11.6667 32.5001C11.6667 33.8784 10.545 35.0001 9.16667 35.0001C7.78833 35.0001 6.66667 33.8784 6.66667 32.5001C6.66667 32.1851 6.72833 31.9067 6.81833 31.6667H11.5167C11.6067 31.9067 11.6667 32.1851 11.6667 32.5001ZM31.6667 11.6667C34.4233 11.6667 36.6667 13.9101 36.6667 16.6667V18.3334H28.3333V11.6667H31.6667ZM33.3333 32.5001C33.3333 33.8784 32.2117 35.0001 30.8333 35.0001C29.455 35.0001 28.3333 33.8784 28.3333 32.5001C28.3333 32.1851 28.395 31.9067 28.485 31.6667H33.1833C33.2733 31.9067 33.3333 32.1851 33.3333 32.5001ZM28.3333 28.3334V21.6667H36.6667V28.3334H28.3333ZM16.6667 5.00008H0V1.66675H16.6667V5.00008ZM13.3333 11.6667H0V8.33342H13.3333V11.6667ZM10 18.3334H0V15.0001H10V18.3334Z" fill="#F5C542"/>
</svg>
