<svg width="40" height="40" viewBox="0 0 40 40" fill="none" xmlns="http://www.w3.org/2000/svg">
<g clip-path="url(#clip0_352_2925)">
<path d="M2.40657 11.1149C1.8485 11.2744 1.34173 11.5768 0.936419 11.9922C0.531106 12.4077 0.241292 12.9217 0.0956559 13.4836C-0.0499806 14.0454 -0.0463924 14.6355 0.106065 15.1956C0.258523 15.7556 0.554566 16.2661 0.964901 16.6766L6.65157 22.3566V33.3332H17.6399L23.3649 39.0499C23.6722 39.3598 24.0377 39.606 24.4404 39.7741C24.8431 39.9423 25.2751 40.0292 25.7116 40.0299C25.9984 40.0294 26.284 39.9924 26.5616 39.9199C27.1232 39.7785 27.6376 39.4916 28.0531 39.0881C28.4685 38.6846 28.7704 38.1788 28.9282 37.6216L39.9849 0.0349121L2.40657 11.1149ZM3.33323 14.3199L31.7132 5.95325L9.98823 27.6432V20.9766L3.33323 14.3199ZM25.7332 36.6932L19.0216 29.9999H12.3549L34.0766 8.29658L25.7332 36.6932Z" fill="#F5C542"/>
</g>
<defs>
<clipPath id="clip0_352_2925">
<rect width="40" height="40" fill="white"/>
</clipPath>
</defs>
</svg>
