<?xml version="1.0" encoding="utf-8"?>
<!-- Generator: Adobe Illustrator 26.3.1, SVG Export Plug-In . SVG Version: 6.00 Build 0)  -->
<svg version="1.1" id="Layer_1" xmlns="http://www.w3.org/2000/svg" xmlns:xlink="http://www.w3.org/1999/xlink" x="0px" y="0px"
	 viewBox="0 0 30 30" style="enable-background:new 0 0 30 30;" xml:space="preserve">
<style type="text/css">
	.st0{fill:#F05E27;}
</style>
<path class="st0" d="M8.1,8.4C7.8,8.1,7.5,7.9,7.3,7.7C5.4,6,5.7,3.2,7.6,1.8c1.2-0.9,2.7-0.8,4,0c0.9,0.7,1.6,1.6,2.2,2.6
	c0.5,0.9,0.9,1.8,1.4,2.7c0-0.1,0.1-0.1,0.1-0.2c0.6-1.4,1.2-2.8,2.2-4c0.6-0.7,1.3-1.4,2.3-1.6c1.8-0.5,3.6,0.6,4.2,2.5
	c0.5,1.6-0.1,3.3-1.6,4.3c-0.1,0.1-0.2,0.2-0.4,0.3c0.2,0,0.3,0,0.4,0c1.1,0,2.3,0,3.4,0c1.3,0,2,0.7,2,2c0,0.7,0,1.5,0,2.2
	c0,0.7-0.3,1.3-1,1.6c-0.2,0.1-0.2,0.2-0.2,0.4c0,3.1,0,6.1,0,9.2c0,1,0,2.1,0,3.1c0,1.2-0.7,2-1.9,2c-6.3,0-12.6,0-18.9,0
	c-1.2,0-2-0.7-2-2c0-4.1,0-8.1,0-12.2c0-0.2,0-0.4-0.3-0.5c-0.6-0.3-0.9-0.9-0.9-1.6c0-0.8,0-1.5,0-2.3c0-1.1,0.8-1.9,1.9-1.9
	c1.2,0,2.3,0,3.5,0C7.9,8.4,8,8.4,8.1,8.4z M4.8,14.4c0,0.1,0,0.2,0,0.3c0,4,0,8.1,0,12.1c0,0.6,0.2,0.8,0.8,0.8c2,0,4.1,0,6.1,0
	c0.1,0,0.2,0,0.3,0c0-4.4,0-8.8,0-13.2C9.6,14.4,7.2,14.4,4.8,14.4z M25.2,14.4c-2.4,0-4.8,0-7.2,0c0,4.4,0,8.8,0,13.2
	c0.1,0,0.2,0,0.3,0c2,0,4,0,6,0c0.6,0,0.8-0.2,0.8-0.8c0-4,0-8,0-12C25.2,14.6,25.2,14.5,25.2,14.4z M16.8,27.6c0-4.4,0-8.8,0-13.2
	c-1.2,0-2.4,0-3.6,0c0,4.4,0,8.8,0,13.2C14.4,27.6,15.6,27.6,16.8,27.6z M11.4,9.6c-0.1,0-0.1,0-0.2,0c-2.3,0-4.6,0-6.9,0
	c-0.4,0-0.7,0.2-0.7,0.7c0,0.7,0,1.4,0,2.1c0,0.6,0.2,0.8,0.8,0.8c2.2,0,4.5,0,6.7,0c0.1,0,0.2,0,0.3,0C11.4,12,11.4,10.8,11.4,9.6z
	 M18.6,13.2c0.1,0,0.2,0,0.3,0c2.3,0,4.5,0,6.8,0c0.5,0,0.7-0.2,0.7-0.7c0-0.7,0-1.4,0-2.1c0-0.6-0.2-0.8-0.8-0.8
	c-2.2,0-4.5,0-6.7,0c-0.1,0-0.2,0-0.3,0C18.6,10.8,18.6,12,18.6,13.2z M14.2,8.4c-0.4-0.8-0.7-1.6-1-2.3c-0.4-0.9-1-1.8-1.6-2.6
	c-0.4-0.5-0.9-0.9-1.5-1.1C8.6,2.1,7.3,3.1,7.2,4.9c0,1.1,0.5,1.9,1.4,2.4C10.4,8.3,12.2,8.4,14.2,8.4z M15.8,8.4c0.1,0,0.1,0,0.2,0
	c0.9-0.1,1.8-0.1,2.7-0.2c1-0.2,2-0.5,2.9-1.1c1.2-0.9,1.5-2.3,0.8-3.6c-0.7-1.1-2-1.5-3.1-0.7C19,3,18.7,3.3,18.4,3.6
	c-0.9,1-1.5,2.2-2,3.5C16.2,7.5,16,7.9,15.8,8.4z M12.6,9.6c0,1.2,0,2.4,0,3.6c1.6,0,3.2,0,4.8,0c0-1.2,0-2.4,0-3.6
	C15.8,9.6,14.2,9.6,12.6,9.6z"/>
</svg>
