<?xml version="1.0" encoding="utf-8"?>
<!-- Generator: Adobe Illustrator 26.3.1, SVG Export Plug-In . SVG Version: 6.00 Build 0)  -->
<svg version="1.1" id="Layer_1" xmlns="http://www.w3.org/2000/svg" xmlns:xlink="http://www.w3.org/1999/xlink" x="0px" y="0px"
	 viewBox="0 0 30 30" style="enable-background:new 0 0 30 30;" xml:space="preserve">
<style type="text/css">
	.st0{fill:#F05E27;}
</style>
<g>
	<path class="st0" d="M1.1,10.6c0.4-0.4,0.7-0.4,1,0.1c1,1.6,1.9,3.3,2.9,4.9c0.1,0.2,0.2,0.3,0.4,0.2c0.3,0,0.5,0,0.8,0
		c0-0.2,0-0.3,0-0.4c0-0.6,0.3-1,0.7-1.2c0.1-0.1,0.2-0.2,0.2-0.3c0-0.2,0-0.4,0-0.6c0-0.7,0.3-1,0.9-1.1c0-0.3,0-0.6,0-0.9
		c-0.4,0-0.9,0.1-0.9-0.5c0-0.6,0.5-0.4,0.9-0.5c0-0.2,0-0.3,0-0.5c-0.3,0-0.6,0-0.8,0c-0.3,0-0.6-0.2-0.5-0.5
		c0-0.3,0.2-0.5,0.6-0.5c0.3,0,0.5,0,0.8,0c0-0.1,0-0.3,0-0.5c-0.3,0-0.5,0-0.8,0C6.9,8.5,6.6,8.3,6.6,8c0-0.3,0.2-0.5,0.6-0.5
		c0.2,0,0.5,0,0.7,0c0,0,0,0,0.1,0c0-0.1,0-0.3,0-0.4c-0.1,0-0.3,0-0.4,0c-0.3,0-0.5-0.2-0.5-0.5c0-0.3,0.2-0.5,0.5-0.5
		c0.1,0,0.3,0,0.4,0C8,6,8,5.8,8,5.7c0-0.3,0.2-0.5,0.5-0.5c0.3,0,0.4,0.2,0.5,0.5C9,5.8,9,6,9,6.1C9.3,6.2,9.9,6,9.9,6.6
		c0,0.6-0.5,0.4-0.9,0.5c0,0.1,0,0.3,0,0.5c0.3,0,0.6,0,0.9,0c0.3,0,0.4,0.2,0.4,0.4c0,0.2-0.1,0.4-0.3,0.5c-0.1,0-0.2,0-0.3,0
		c-0.2,0-0.5,0-0.7,0c0,0.2,0,0.3,0,0.5c0.3,0,0.6,0,0.8,0c0.3,0,0.6,0.2,0.6,0.5c0,0.3-0.2,0.5-0.6,0.5c-0.3,0-0.5,0-0.8,0
		c0,0.2,0,0.3,0,0.5c0.4,0.1,0.9-0.1,0.9,0.5c0,0.6-0.5,0.4-0.9,0.5c0,0.3,0,0.6,0,0.9c0.1,0,0.2,0.1,0.4,0.1
		c0.3,0.2,0.5,0.4,0.6,0.8c0,0.1,0,0.3,0,0.4c0,0.4,0,0.7,0.4,1c0.4,0.2,0.5,0.6,0.5,1c0,0.2,0,0.3,0,0.5c0.8,0,1.5,0,2.3,0
		c0-0.1,0-0.2,0-0.3c0-1.1,0-2.2,0-3.3c0-0.2,0-0.3-0.2-0.4c-0.2-0.2-0.3-0.4-0.3-0.7c0-0.3,0-0.5,0-0.8c0-0.1-0.1-0.2-0.1-0.2
		c-1-0.6-1.1-2.1-0.3-2.8c0,0,0.1,0,0.1-0.1C11.9,6.7,11.5,6,11,5.4c-0.1-0.1-0.2-0.2-0.2-0.4c-0.3-0.5-0.3-1.1,0.1-1.6
		c2-2.6,6.2-2.6,8.2,0c0.4,0.5,0.4,1.1,0,1.7c-0.5,0.7-1,1.4-1.5,2.1c0.3,0.3,0.6,0.6,0.6,1c0,0.5,0.1,1-0.3,1.5
		c-0.1,0.1-0.2,0.3-0.4,0.3c-0.2,0.1-0.3,0.2-0.3,0.5c0,0.2,0,0.5,0,0.7c0,0.3-0.1,0.5-0.3,0.7c-0.1,0.1-0.1,0.1-0.1,0.2
		c0,1.2,0,2.4,0,3.7c0.5,0,0.9,0,1.4,0c0-0.4,0-0.8,0-1.2c0-0.3,0.1-0.6,0.4-0.9c0.1,0,0.1-0.2,0.1-0.2c0-0.3,0-0.5,0-0.8
		c0-0.3,0.1-0.6,0.3-0.8c0.1-0.1,0.1-0.2,0.1-0.3c0-1,0-1.9,0-2.9c0-0.6,0.2-1.1,0.8-1.4c0.6-0.3,1.1-0.2,1.6,0.3
		c0.3,0.2,0.5,0.5,0.8,0.7c0.3,0.3,0.5,0.7,0.5,1.1c0,0.7,0,1.5,0,2.2c0,0.1,0.1,0.2,0.1,0.3c0.2,0.2,0.3,0.4,0.3,0.7
		c0,0.2,0,0.3,0,0.5c0,0.3,0,0.6,0.3,0.8c0.1,0.1,0.2,0.4,0.2,0.6c0,0.4,0,0.9,0,1.4c0.4,0,0.7,0,1,0c0.1,0,0.2-0.1,0.2-0.2
		c1-1.7,1.9-3.3,2.9-5c0.1-0.1,0.3-0.3,0.4-0.3c0.2-0.1,0.4,0.1,0.5,0.3c0,0.1,0,0.2,0,0.3c0,0,0,0,0,0c-1,1.8-2.1,3.5-3.1,5.3
		c-0.1,0.1-0.1,0.3-0.1,0.5c0,3.2,0,6.5,0,9.7c0,0.8-0.3,1.2-1,1.5c0,0,0,0-0.1,0c-6.4,0-12.8,0-19.2,0c-0.8-0.3-1.1-0.9-1.1-1.8
		c0-3,0-5.9,0-8.9c0-0.6-0.1-1.1-0.4-1.6c-1-1.6-1.9-3.2-2.8-4.8C1.1,10.8,1.1,10.7,1.1,10.6z M5.2,16.9c0,0.1,0,0.2,0,0.3
		c0,3.1,0,6.2,0,9.3c0,0.5,0.1,0.7,0.7,0.7c6.1,0,12.1,0,18.2,0c0.5,0,0.7-0.1,0.7-0.7c0-3.1,0-6.2,0-9.3c0-0.1,0-0.2,0-0.3
		C18.2,16.9,11.8,16.9,5.2,16.9z M15,7.1c0.5,0,1,0,1.4,0c0.1,0,0.2-0.1,0.3-0.1c0.5-0.7,1.1-1.5,1.6-2.2c0.2-0.3,0.2-0.4,0-0.7
		c-1.7-2-4.9-2-6.6,0c-0.2,0.3-0.2,0.4,0,0.7c0.5,0.7,1.1,1.5,1.6,2.2c0.1,0.1,0.2,0.1,0.3,0.1C14,7.1,14.5,7.1,15,7.1z M14.1,15.9
		c0.6,0,1.2,0,1.8,0c0-1.2,0-2.5,0-3.7c-0.6,0-1.2,0-1.8,0C14.1,13.5,14.1,14.7,14.1,15.9z M15,9.4c0.6,0,1.2,0,1.7,0
		c0.4,0,0.6-0.2,0.6-0.6c0-0.1,0-0.2,0-0.4c0-0.3-0.2-0.4-0.5-0.5c-1.2,0-2.5,0-3.7,0c-0.3,0-0.5,0.2-0.5,0.5c0,0.1,0,0.2,0,0.3
		c0,0.4,0.2,0.6,0.6,0.6C13.8,9.4,14.4,9.4,15,9.4z M22,11.7c0-0.8,0-1.6,0-2.3c0-0.1-0.1-0.3-0.2-0.4c-0.2-0.2-0.5-0.4-0.8-0.7
		c-0.2-0.1-0.4-0.2-0.6-0.1c-0.2,0.1-0.3,0.3-0.3,0.5c0,0.8,0,1.6,0,2.5c0,0.2,0,0.4,0,0.6C20.7,11.7,21.3,11.7,22,11.7z M22.9,15.9
		c0-0.5,0-0.9,0-1.4c-1.2,0-2.5,0-3.7,0c0,0.5,0,0.9,0,1.4C20.4,15.9,21.7,15.9,22.9,15.9z M13.6,11.2c0.9,0,1.8,0,2.8,0
		c0-0.3,0-0.6,0-0.9c-0.9,0-1.8,0-2.8,0C13.6,10.7,13.6,10.9,13.6,11.2z M22.4,12.7c-0.9,0-1.8,0-2.8,0c0,0.3,0,0.6,0,0.9
		c0.9,0,1.8,0,2.8,0C22.4,13.3,22.4,13,22.4,12.7z M7.1,15.9c0.9,0,1.9,0,2.8,0c0-0.2,0-0.3,0-0.5c0-0.3-0.2-0.4-0.4-0.5
		c-0.6,0-1.3,0-1.9,0c-0.3,0-0.4,0.2-0.5,0.5C7.1,15.6,7.1,15.7,7.1,15.9z M8,13.1c0,0.3,0,0.6,0,0.9c0.3,0,0.6,0,0.9,0
		c0-0.3,0-0.6,0-0.9C8.6,13.1,8.3,13.1,8,13.1z"/>
	<path class="st0" d="M13.4,18.7c-1.2,0-2.5,0-3.7,0c-0.1,0-0.2,0-0.3,0c-0.2,0-0.4-0.2-0.4-0.4c0-0.2,0.1-0.4,0.3-0.5
		c0.1,0,0.2-0.1,0.3-0.1c2.5,0,5,0,7.6,0c0.1,0,0.2,0,0.3,0c0.2,0.1,0.3,0.2,0.3,0.5c0,0.2-0.2,0.4-0.4,0.4c-0.1,0-0.2,0-0.3,0
		C15.9,18.7,14.6,18.7,13.4,18.7z"/>
	<path class="st0" d="M7.1,18.7c-0.2,0-0.3,0-0.5,0c-0.2,0-0.4-0.2-0.4-0.4c0-0.2,0.1-0.5,0.4-0.5c0.4,0,0.8,0,1.1,0
		C7.9,17.8,8,18,8,18.3c0,0.2-0.2,0.4-0.4,0.4C7.4,18.7,7.3,18.7,7.1,18.7z"/>
</g>
</svg>
