<svg width="56" height="56" viewBox="0 0 56 56" fill="none" xmlns="http://www.w3.org/2000/svg">
<path d="M46.2979 18.5764H48.764C49.9957 18.5764 51.177 19.0657 52.0479 19.9367C52.9189 20.8076 53.4082 21.9889 53.4082 23.2206V32.509C53.4082 33.7407 52.9189 34.922 52.0479 35.7929C51.177 36.6639 49.9957 37.1532 48.764 37.1532H46.2979C45.7323 41.6427 43.5475 45.7714 40.1536 48.7642C36.7597 51.7571 32.3901 53.4083 27.8651 53.4079V48.7637C31.5602 48.7637 35.1041 47.2958 37.7169 44.6829C40.3298 42.07 41.7977 38.5262 41.7977 34.8311V20.8985C41.7977 17.2033 40.3298 13.6595 37.7169 11.0467C35.1041 8.43381 31.5602 6.96591 27.8651 6.96591C24.1699 6.96591 20.6261 8.43381 18.0133 11.0467C15.4004 13.6595 13.9325 17.2033 13.9325 20.8985V37.1532H6.96622C5.7345 37.1532 4.55323 36.6639 3.68227 35.7929C2.81132 34.922 2.32202 33.7407 2.32202 32.509V23.2206C2.32202 21.9889 2.81132 20.8076 3.68227 19.9367C4.55323 19.0657 5.7345 18.5764 6.96622 18.5764H9.43228C9.99895 14.0875 12.1842 9.95973 15.5779 6.96748C18.9716 3.97524 23.3406 2.32422 27.8651 2.32422C32.3896 2.32422 36.7586 3.97524 40.1523 6.96748C43.546 9.95973 45.7312 14.0875 46.2979 18.5764ZM6.96622 23.2206V32.509H9.28831V23.2206H6.96622ZM46.4419 23.2206V32.509H48.764V23.2206H46.4419ZM18.0194 36.6539L20.4808 32.7156C22.6939 34.1023 25.2535 34.8356 27.8651 34.8311C30.4766 34.8356 33.0363 34.1023 35.2494 32.7156L37.7108 36.6539C34.7602 38.503 31.3472 39.481 27.8651 39.4753C24.383 39.481 20.97 38.503 18.0194 36.6539Z" fill="#F5C542"/>
</svg>
