<svg width="70" height="56" viewBox="0 0 70 56" fill="none" xmlns="http://www.w3.org/2000/svg">
<path d="M67.9213 38.3146H66.1798V26.5481C66.1798 25.1657 65.6246 23.8378 64.645 22.8581L53.7711 11.9842C52.7914 11.0046 51.4635 10.4494 50.0811 10.4494H45.2809V5.22472C45.2809 2.34024 42.9407 0 40.0562 0H12.191C9.30653 0 6.96629 2.34024 6.96629 5.22472V10.4494H0.870786C0.391854 10.4494 0 10.8413 0 11.3202V13.0618C0 13.5407 0.391854 13.9326 0.870786 13.9326H30.4775C30.9565 13.9326 31.3483 14.3244 31.3483 14.8034V16.5449C31.3483 17.0239 30.9565 17.4157 30.4775 17.4157H4.35393C3.875 17.4157 3.48315 17.8076 3.48315 18.2865V20.0281C3.48315 20.507 3.875 20.8989 4.35393 20.8989H26.9944C27.4733 20.8989 27.8652 21.2907 27.8652 21.7697V23.5112C27.8652 23.9902 27.4733 24.382 26.9944 24.382H0.870786C0.391854 24.382 0 24.7739 0 25.2528V26.9944C0 27.4733 0.391854 27.8652 0.870786 27.8652H23.5112C23.9902 27.8652 24.382 28.257 24.382 28.736V30.4775C24.382 30.9565 23.9902 31.3483 23.5112 31.3483H6.96629V45.2809C6.96629 51.0499 11.6468 55.7303 17.4157 55.7303C23.1847 55.7303 27.8652 51.0499 27.8652 45.2809H41.7978C41.7978 51.0499 46.4782 55.7303 52.2472 55.7303C58.0161 55.7303 62.6966 51.0499 62.6966 45.2809H67.9213C68.8792 45.2809 69.6629 44.4972 69.6629 43.5393V40.0562C69.6629 39.0983 68.8792 38.3146 67.9213 38.3146ZM17.4157 50.5056C14.5312 50.5056 12.191 48.1654 12.191 45.2809C12.191 42.3964 14.5312 40.0562 17.4157 40.0562C20.3002 40.0562 22.6404 42.3964 22.6404 45.2809C22.6404 48.1654 20.3002 50.5056 17.4157 50.5056ZM52.2472 50.5056C49.3627 50.5056 47.0225 48.1654 47.0225 45.2809C47.0225 42.3964 49.3627 40.0562 52.2472 40.0562C55.1317 40.0562 57.4719 42.3964 57.4719 45.2809C57.4719 48.1654 55.1317 50.5056 52.2472 50.5056ZM60.9551 27.8652H45.2809V15.6742H50.0811L60.9551 26.5481V27.8652Z" fill="#F5C542"/>
</svg>
