<svg width="49" height="49" viewBox="0 0 49 49" fill="none" xmlns="http://www.w3.org/2000/svg">
<path d="M46.4419 23.0376L40.0794 19.3454C46.2097 14.1207 40.0562 4.36792 32.6951 7.68852L30.6749 8.5477L30.4195 6.31848C30.1873 3.81062 28.8869 2.0226 27.1685 0.977659C23.3603 -1.2353 17.5551 0.281029 16.6262 5.80762L10.2404 2.13871C8.01124 0.838333 5.17828 1.60463 3.90112 3.83384L1.57903 7.85107C0.928839 8.96567 1.3236 10.3822 2.4382 11.0323L20.5273 21.4818L24.0105 15.4443L28.0277 17.7664L24.5446 23.8039L42.6337 34.2533C43.7483 34.8338 45.188 34.5087 45.815 33.3941L48.1371 29.3769C49.4142 27.1477 48.6712 24.3147 46.4419 23.0376ZM24.0801 9.29077C22.0599 9.87129 20.4345 7.71174 21.4562 5.92373C22.0599 4.80912 23.5228 4.43758 24.6375 5.06455C26.4255 6.10949 26.0772 8.80313 24.0801 9.29077ZM36.1318 16.2571C34.1348 16.8376 32.5094 14.678 33.5311 12.89C34.1581 11.7754 35.5977 11.4039 36.6891 12.0308C38.4772 13.0758 38.1288 15.7694 36.1318 16.2571ZM43.818 36.8773C44.77 36.8773 45.6757 36.5522 46.4419 35.9949V44.1222C46.4419 46.6998 44.3753 48.7664 41.7978 48.7664H4.64419C3.41248 48.7664 2.23121 48.2771 1.36025 47.4062C0.489297 46.5352 0 45.3539 0 44.1222V23.2234H18.9251L20.8989 24.3844V44.1222H25.5431V27.0548L41.4959 36.2503C42.1925 36.6683 42.9588 36.8773 43.818 36.8773Z" fill="#F5C542"/>
</svg>
