<svg width="56" height="56" viewBox="0 0 56 56" fill="none" xmlns="http://www.w3.org/2000/svg">
<path fill-rule="evenodd" clip-rule="evenodd" d="M17.785 4.15216C17.9479 3.94379 18.1562 3.77527 18.394 3.6594C18.6318 3.54352 18.8928 3.48333 19.1573 3.4834H36.5731C36.8376 3.48347 37.0986 3.54381 37.3364 3.65983C37.5741 3.77585 37.7823 3.94451 37.9451 4.153C38.108 4.36149 38.2212 4.60433 38.2761 4.8631C38.3311 5.12187 38.3264 5.38975 38.2624 5.64643L37.9315 6.96654H43.5393C44.0012 6.96654 44.4442 7.15003 44.7708 7.47664C45.0974 7.80325 45.2809 8.24622 45.2809 8.70812V50.5059C45.2809 50.9678 45.0974 51.4107 44.7708 51.7373C44.4442 52.064 44.0012 52.2474 43.5393 52.2474H12.191C11.7291 52.2474 11.2862 52.064 10.9596 51.7373C10.6329 51.4107 10.4495 50.9678 10.4495 50.5059V8.70812C10.4495 8.24622 10.6329 7.80325 10.9596 7.47664C11.2862 7.15003 11.7291 6.96654 12.191 6.96654H17.7989L17.468 5.64643C17.4033 5.38991 17.398 5.12203 17.4523 4.86311C17.5066 4.6042 17.6227 4.36107 17.785 4.15216ZM34.3438 6.96654H21.3865L22.2573 10.4497H33.4731L34.3438 6.96654ZM38.3146 41.798H17.4158V38.3149H38.3146V41.798ZM20.8989 34.8317L26.1236 33.0901L36.5731 22.6407L33.0899 19.1576L22.6405 29.607L20.8989 34.8317Z" fill="#F5C542"/>
</svg>
