<svg width="40" height="40" viewBox="0 0 40 40" fill="none" xmlns="http://www.w3.org/2000/svg">
<g clip-path="url(#clip0_853_1080)">
<path d="M38.2099 10.4396C40.5933 8.05293 40.5933 4.1746 38.2099 1.79293C35.8266 -0.593737 31.9433 -0.593737 29.5616 1.79293L11.3333 20.0179C8.81826 19.8796 6.25826 20.7696 4.33992 22.6863C1.83826 25.1896 0.424924 32.2546 0.0282569 35.6379C-0.111743 36.8263 0.29159 37.9913 1.13492 38.8346C1.86659 39.5679 2.84326 39.9696 3.86826 39.9696C4.02326 39.9696 4.17826 39.9596 4.33159 39.9413C4.73326 39.8946 14.2283 38.7446 17.3133 35.6596C19.2299 33.7429 20.1183 31.1829 19.9799 28.6679L38.2099 10.4396ZM14.9549 33.3013C13.5316 34.7246 8.12992 36.1363 3.93992 36.6296C3.71492 36.6646 3.55992 36.5463 3.48992 36.4763C3.42159 36.4079 3.30992 36.2579 3.33659 36.0246C3.82659 31.8546 5.29326 26.4463 6.69659 25.0413C7.83659 23.9029 9.32992 23.3346 10.8266 23.3346C12.3233 23.3346 13.8166 23.9046 14.9566 25.0413C17.2333 27.3179 17.2333 31.0229 14.9566 33.2996L14.9549 33.3013ZM17.3116 22.6863C16.6266 22.0013 15.8583 21.4463 15.0399 21.0246L31.9166 4.14793C32.9999 3.0646 34.7683 3.0646 35.8516 4.14793C36.9349 5.23126 36.9349 6.99626 35.8516 8.08126L18.9733 24.9579C18.5499 24.1396 17.9966 23.3713 17.3116 22.6863Z" fill="#F5C542"/>
<path d="M7.87036 16.5166C8.19536 16.8416 8.62203 17.0049 9.0487 17.0049C9.47536 17.0049 9.90203 16.8416 10.227 16.5166C10.8787 15.8649 10.8787 14.8116 10.227 14.1599L4.15036 8.08328C3.06536 6.99828 3.06536 5.23328 4.15036 4.14828C5.23536 3.06495 7.00203 3.06495 8.0837 4.14828L14.1604 10.2266C14.812 10.8783 15.8654 10.8783 16.517 10.2266C17.1687 9.57495 17.1687 8.52161 16.517 7.86995L10.4404 1.79161C8.0537 -0.591719 4.17536 -0.591719 1.79203 1.78995C-0.591302 4.17161 -0.592969 8.05495 1.79203 10.4383L7.8687 16.5149L7.87036 16.5166Z" fill="#F5C542"/>
<path d="M37.0699 28.4232L32.1449 23.4966C31.4932 22.8449 30.4399 22.8449 29.7882 23.4966C29.1366 24.1482 29.1366 25.2016 29.7882 25.8532L34.7132 30.7799C35.9549 32.0199 36.6666 33.7366 36.6666 35.4932V36.6666H35.4949C33.7132 36.6666 32.0382 35.9732 30.7799 34.7132L25.8532 29.7882C25.2016 29.1366 24.1482 29.1366 23.4966 29.7882C22.8449 30.4399 22.8449 31.4932 23.4966 32.1449L28.4232 37.0699C30.3099 38.9599 32.8232 39.9999 35.4949 39.9999H38.3332C39.2549 39.9999 39.9999 39.2549 39.9999 38.3332V35.4932C39.9999 32.8599 38.9316 30.2816 37.0699 28.4232Z" fill="#F5C542"/>
</g>
<defs>
<clipPath id="clip0_853_1080">
<rect width="40" height="40" fill="white"/>
</clipPath>
</defs>
</svg>
