<svg width="16" height="16" viewBox="0 0 16 16" fill="none" xmlns="http://www.w3.org/2000/svg">
<g clip-path="url(#clip0_352_1564)">
<path d="M14.6667 3.81509V1.33243C14.6667 0.964427 14.3687 0.665761 14 0.665761C13.6313 0.665761 13.3333 0.964427 13.3333 1.33243V2.90976L9.86467 0.569094C8.732 -0.194906 7.268 -0.194906 6.13533 0.569094L1.46867 3.71843C0.549333 4.3391 0 5.37176 0 6.48176V12.6658C0 14.5038 1.49533 15.9991 3.33333 15.9991H5.33333C5.702 15.9991 6 15.7004 6 15.3324V9.9991C6 9.63176 6.29867 9.33243 6.66667 9.33243H9.33333C9.70133 9.33243 10 9.63176 10 9.9991V15.3324C10 15.7004 10.298 15.9991 10.6667 15.9991H12.6667C14.5047 15.9991 16 14.5038 16 12.6658V6.48176C16 5.42776 15.504 4.4431 14.6667 3.81509ZM14.6667 12.6658C14.6667 13.7684 13.7693 14.6658 12.6667 14.6658H11.3333V9.9991C11.3333 8.89643 10.436 7.9991 9.33333 7.9991H6.66667C5.564 7.9991 4.66667 8.89643 4.66667 9.9991V14.6658H3.33333C2.23067 14.6658 1.33333 13.7684 1.33333 12.6658V6.48176C1.33333 5.81576 1.66267 5.19576 2.21467 4.82376L6.88133 1.67443C7.56133 1.21576 8.43867 1.21576 9.118 1.67443L13.7847 4.82376C14.3367 5.19576 14.666 5.81576 14.666 6.48176L14.6667 12.6658Z" fill="#F5C542"/>
</g>
<defs>
<clipPath id="clip0_352_1564">
<rect width="16" height="16" fill="white"/>
</clipPath>
</defs>
</svg>
