<svg width="30" height="30" viewBox="0 0 30 30" fill="none" xmlns="http://www.w3.org/2000/svg">
<g clip-path="url(#clip0_352_3988)">
<path d="M28.7524 26.9807H29.0362L28.4924 26.1582C28.8249 26.1582 29.0012 25.947 29.0037 25.6882C29.0037 25.6782 29.0037 25.667 29.0024 25.657C29.0024 25.3045 28.7899 25.1357 28.3537 25.1357H27.6487V26.9807H27.9137V26.177H28.2399L28.7524 26.9807ZM28.2212 25.9682H27.9137V25.3445H28.3037C28.5049 25.3445 28.7349 25.377 28.7349 25.6407C28.7349 25.9432 28.5037 25.9682 28.2212 25.9682Z" fill="#F5C542"/>
<path d="M21.6138 23.8419H17.855V17.9557C17.855 16.5519 17.83 14.7457 15.9 14.7457C13.9425 14.7457 13.6425 16.2744 13.6425 17.8544V23.8419H9.885V11.7369H13.4937V13.3907H13.5437C14.28 12.1332 15.6475 11.3819 17.1038 11.4357C20.9137 11.4357 21.615 13.9419 21.615 17.2007L21.6138 23.8419ZM5.64375 10.0819C4.43875 10.0819 3.4625 9.1057 3.4625 7.9007C3.4625 6.6957 4.43875 5.71945 5.64375 5.71945C6.84875 5.71945 7.825 6.6957 7.825 7.9007C7.825 9.1057 6.84875 10.0819 5.64375 10.0819ZM7.5225 23.8419H3.76V11.7369H7.5225V23.8419ZM23.4875 2.22945H1.87125C0.85 2.2182 0.0125 3.03695 0 4.0582V25.7632C0.0125 26.7857 0.85 27.6044 1.87125 27.5932H23.4875C24.5113 27.6057 25.3525 26.7869 25.3662 25.7632V4.05695C25.3512 3.0332 24.51 2.21445 23.4875 2.2282" fill="#F5C542"/>
<path d="M28.2537 24.3145C27.2987 24.3232 26.5312 25.1057 26.5412 26.0607C26.55 27.0157 27.3325 27.7832 28.2875 27.7732C29.2425 27.7645 30.01 26.982 30 26.027C29.9912 25.0845 29.2287 24.3232 28.2875 24.3145H28.2537ZM28.2937 27.5745C27.4562 27.5882 26.7262 26.922 26.7125 26.0845C26.6987 25.247 27.3662 24.557 28.2037 24.5432C29.0412 24.5295 29.7312 25.197 29.745 26.0345C29.745 26.0432 29.745 26.0507 29.745 26.0595C29.7625 26.8782 29.1125 27.557 28.2937 27.5745H28.255H28.2937Z" fill="#F5C542"/>
</g>
<defs>
<clipPath id="clip0_352_3988">
<rect width="30" height="30" fill="white"/>
</clipPath>
</defs>
</svg>
