<svg width="173" height="64" viewBox="0 0 173 64" fill="none" xmlns="http://www.w3.org/2000/svg">
<path d="M57.9729 14.1847V27.8924C57.9729 31.093 57.1483 34.2647 55.5912 37.0616C54.0342 39.8585 51.7678 42.2287 49.0459 43.9068L49.0229 43.9241L33.3083 53.4278L26.094 49.9158V62.9315L20.2523 59.2523V40.5794L33.0027 46.7844L45.9837 38.9358C49.836 36.5484 52.1312 32.4251 52.1312 27.8982V17.7774L32.9219 8.08341L12.2883 18.4925V54.2409L6.44653 50.5617V14.8998L32.9219 1.53809L57.9729 14.1847Z" fill="url(#paint0_linear_391_141)"/>
<path d="M21.2734 21.0171L32.2131 15.5732L43.1008 21.0171L32.2131 26.4091" fill="url(#paint1_linear_391_141)"/>
<path d="M19.7222 22.6143V32.4351L31.3077 38.0405V28.4849" fill="url(#paint2_linear_391_141)"/>
<path d="M44.8075 22.6143V32.4351L33.2278 38.0405V28.4849" fill="url(#paint3_linear_391_141)"/>
<path d="M68.5673 26.1387V32.0036H64.2883V14.4609H70.7933C72.0908 14.4609 73.2096 14.6051 74.1438 14.8992C75.078 15.1933 75.845 15.597 76.4505 16.1102C77.056 16.6235 77.5001 17.229 77.7884 17.9268C78.0768 18.6246 78.2209 19.38 78.2209 20.1931C78.2209 21.0697 78.071 21.8713 77.7769 22.6037C77.4828 23.336 77.0272 23.9589 76.4217 24.4836C75.8162 25.0084 75.0434 25.4121 74.1092 25.7062C73.175 26.0003 72.0735 26.1445 70.799 26.1445H68.5673V26.1387ZM68.5673 23.065H70.7933C71.9063 23.065 72.7079 22.8113 73.198 22.3038C73.6882 21.7963 73.9304 21.0928 73.9304 20.1874C73.9304 19.7837 73.867 19.4204 73.7401 19.0917C73.6132 18.763 73.4229 18.4804 73.1634 18.244C72.9039 18.0075 72.581 17.823 72.1889 17.6961C71.7967 17.5692 71.3296 17.5058 70.7875 17.5058H68.5673V23.065Z" fill="#F5C541"/>
<path d="M80.2683 32.0009V19.5157H82.5981C82.7942 19.5157 82.9556 19.533 83.0883 19.5619C83.2209 19.5965 83.3305 19.6426 83.417 19.7118C83.5035 19.781 83.5727 19.8733 83.6188 19.9828C83.665 20.0982 83.7053 20.2308 83.7399 20.3923L83.9533 21.563C84.4319 20.8594 84.974 20.3 85.5738 19.8906C86.1735 19.4811 86.8252 19.2793 87.5345 19.2793C88.1342 19.2793 88.6129 19.4177 88.9762 19.6887L88.4687 22.4337C88.4341 22.601 88.3649 22.7221 88.2669 22.7913C88.1631 22.8605 88.0304 22.8951 87.8632 22.8951C87.719 22.8951 87.5518 22.8778 87.3557 22.8432C87.1596 22.8086 86.9174 22.7913 86.6233 22.7913C85.5911 22.7913 84.7837 23.3161 84.1897 24.3541V32.0124H80.2683V32.0009Z" fill="#F5C541"/>
<path d="M96.1672 19.3193C97.038 19.3193 97.8338 19.4462 98.5547 19.7057C99.2755 19.9652 99.8983 20.3343 100.417 20.8245C100.936 21.3147 101.34 21.9144 101.634 22.6237C101.922 23.333 102.072 24.1404 102.072 25.04C102.072 25.3226 102.061 25.5475 102.032 25.7263C102.009 25.905 101.963 26.0434 101.894 26.1472C101.824 26.251 101.738 26.326 101.623 26.3664C101.507 26.4067 101.363 26.424 101.184 26.424H93.6125C93.7394 27.4678 94.0738 28.2233 94.6102 28.6962C95.1522 29.1633 95.8443 29.3997 96.6977 29.3997C97.1533 29.3997 97.5455 29.3478 97.8742 29.244C98.2029 29.1402 98.497 29.0249 98.7565 28.8922C99.016 28.7654 99.2524 28.65 99.4658 28.5405C99.6792 28.4367 99.9041 28.3848 100.141 28.3848C100.452 28.3848 100.688 28.4943 100.85 28.7077L101.992 30.0456C101.588 30.4896 101.15 30.8472 100.683 31.124C100.215 31.4008 99.7311 31.6199 99.2409 31.7756C98.745 31.9313 98.2548 32.0409 97.7588 32.0986C97.2629 32.1562 96.7958 32.1908 96.346 32.1908C95.4233 32.1908 94.564 32.0467 93.7567 31.7641C92.9493 31.4815 92.2458 31.0548 91.6403 30.4954C91.0347 29.936 90.5619 29.2325 90.2101 28.4021C89.8583 27.5659 89.6853 26.597 89.6853 25.4898C89.6853 24.6536 89.8352 23.8636 90.1351 23.1197C90.435 22.3757 90.8675 21.7183 91.4269 21.1589C91.9863 20.5996 92.6667 20.1498 93.4626 19.821C94.2641 19.4866 95.1638 19.3193 96.1672 19.3193ZM96.2422 21.8971C95.4925 21.8971 94.9043 22.0989 94.4833 22.5026C94.0623 22.9063 93.7797 23.4945 93.6471 24.2557H98.5489C98.5489 23.9616 98.5085 23.6675 98.4278 23.3907C98.347 23.1081 98.2144 22.8602 98.0356 22.6352C97.8569 22.4161 97.6147 22.2373 97.3206 22.0989C97.0264 21.9663 96.6631 21.8971 96.2422 21.8971Z" fill="#F5C541"/>
<path d="M104.143 32.0005V19.5154H106.576C106.818 19.5154 107.026 19.5673 107.187 19.6711C107.355 19.7749 107.47 19.9306 107.533 20.1382L107.747 20.8129C107.966 20.5938 108.197 20.3977 108.433 20.219C108.67 20.0402 108.923 19.8845 109.2 19.7518C109.477 19.6192 109.771 19.5154 110.088 19.4404C110.405 19.3655 110.751 19.3251 111.132 19.3251C111.928 19.3251 112.579 19.5212 113.098 19.9076C113.617 20.2997 114.01 20.8187 114.281 21.4646C114.5 21.0782 114.771 20.7495 115.082 20.4785C115.399 20.2074 115.74 19.9825 116.109 19.8153C116.478 19.648 116.864 19.5212 117.274 19.4404C117.683 19.3597 118.092 19.3193 118.496 19.3193C119.246 19.3193 119.915 19.4231 120.497 19.6365C121.08 19.8499 121.57 20.1613 121.962 20.565C122.354 20.9686 122.654 21.4704 122.856 22.0586C123.058 22.6468 123.161 23.3157 123.161 24.0654V32.0005H119.234V24.0654C119.234 22.7737 118.652 22.1278 117.487 22.1278C116.956 22.1278 116.512 22.295 116.166 22.6295C115.815 22.964 115.642 23.4426 115.642 24.0712V32.0063H111.714V24.0654C111.714 23.3503 111.564 22.8486 111.27 22.5603C110.976 22.2719 110.538 22.1278 109.967 22.1278C109.615 22.1278 109.275 22.2027 108.958 22.3584C108.641 22.5084 108.347 22.716 108.064 22.9697V32.0005H104.143Z" fill="#F5C541"/>
<path d="M130.272 16.0977C130.272 16.3976 130.209 16.6744 130.082 16.9339C129.955 17.1934 129.782 17.4241 129.563 17.6202C129.344 17.8162 129.09 17.9719 128.796 18.0873C128.508 18.2026 128.196 18.2603 127.867 18.2603C127.544 18.2603 127.245 18.2026 126.968 18.0873C126.691 17.9719 126.443 17.8162 126.23 17.6202C126.016 17.4241 125.843 17.1934 125.722 16.9339C125.601 16.6744 125.538 16.3918 125.538 16.0977C125.538 15.7921 125.601 15.5095 125.722 15.2442C125.843 14.979 126.01 14.7483 126.23 14.5465C126.443 14.3446 126.691 14.1889 126.968 14.0793C127.245 13.9698 127.544 13.9121 127.867 13.9121C128.196 13.9121 128.508 13.9698 128.796 14.0793C129.084 14.1947 129.344 14.3504 129.563 14.5465C129.782 14.7483 129.955 14.979 130.082 15.2442C130.209 15.5095 130.272 15.7921 130.272 16.0977ZM129.817 19.5174V32.0026H125.889V19.5174H129.817Z" fill="#F5C541"/>
<path d="M136.477 19.5176V27.4412C136.477 28.0582 136.627 28.5369 136.921 28.8713C137.215 29.2058 137.654 29.3788 138.225 29.3788C138.657 29.3788 139.061 29.2923 139.436 29.1251C139.81 28.9578 140.174 28.7214 140.531 28.4158V19.5176H144.458V32.0027H142.025C141.535 32.0027 141.218 31.7951 141.062 31.3741L140.82 30.6533C140.566 30.884 140.306 31.0973 140.035 31.2876C139.764 31.4779 139.476 31.6394 139.17 31.772C138.865 31.9047 138.53 32.0085 138.178 32.0834C137.827 32.1584 137.434 32.1988 137.013 32.1988C136.298 32.1988 135.658 32.0777 135.11 31.8412C134.557 31.6048 134.09 31.2761 133.709 30.8494C133.329 30.4226 133.04 29.9209 132.85 29.3442C132.654 28.7675 132.562 28.1332 132.562 27.4412V19.5176H136.477Z" fill="#F5C541"/>
<path d="M147.313 32.0005V19.5154H149.747C149.989 19.5154 150.196 19.5673 150.358 19.6711C150.525 19.7749 150.64 19.9306 150.704 20.1382L150.917 20.8129C151.136 20.5938 151.367 20.3977 151.603 20.219C151.84 20.0402 152.094 19.8845 152.37 19.7518C152.647 19.6192 152.941 19.5154 153.259 19.4404C153.576 19.3655 153.922 19.3251 154.302 19.3251C155.098 19.3251 155.75 19.5212 156.269 19.9076C156.788 20.2997 157.18 20.8187 157.451 21.4646C157.67 21.0782 157.941 20.7495 158.253 20.4785C158.57 20.2074 158.91 19.9825 159.279 19.8153C159.648 19.648 160.035 19.5212 160.444 19.4404C160.853 19.3597 161.263 19.3193 161.667 19.3193C162.416 19.3193 163.085 19.4231 163.668 19.6365C164.25 19.8499 164.74 20.1613 165.132 20.565C165.525 20.9686 165.824 21.4704 166.026 22.0586C166.228 22.6468 166.332 23.3157 166.332 24.0654V32.0005H162.405V24.0654C162.405 22.7737 161.822 22.1278 160.657 22.1278C160.127 22.1278 159.683 22.295 159.337 22.6295C158.985 22.964 158.812 23.4426 158.812 24.0712V32.0063H154.885V24.0654C154.885 23.3503 154.735 22.8486 154.441 22.5603C154.147 22.2719 153.708 22.1278 153.137 22.1278C152.786 22.1278 152.445 22.2027 152.128 22.3584C151.811 22.5084 151.517 22.716 151.234 22.9697V32.0005H147.313Z" fill="#F5C541"/>
<path d="M64.6169 54.7655V37.3555H70.9316C72.1311 37.3555 73.1518 37.465 73.9995 37.6784C74.8473 37.8975 75.545 38.2032 76.0871 38.6069C76.6292 39.0105 77.0329 39.495 77.2808 40.0659C77.5346 40.6368 77.6615 41.2769 77.6615 41.992C77.6615 42.4014 77.598 42.7936 77.4712 43.1684C77.3443 43.5432 77.1482 43.8893 76.8829 44.218C76.6177 44.5409 76.2774 44.8408 75.868 45.1003C75.4585 45.3656 74.9684 45.5905 74.4032 45.775C76.9175 46.3113 78.1747 47.6031 78.1747 49.6503C78.1747 50.3884 78.0248 51.0689 77.7307 51.6975C77.4366 52.3261 77.004 52.8624 76.4389 53.318C75.8737 53.7736 75.176 54.1253 74.3513 54.3848C73.5267 54.6444 72.5809 54.7712 71.514 54.7712H64.6169V54.7655ZM68.0251 44.8927H70.7471C71.9004 44.8927 72.7827 44.6908 73.3825 44.2929C73.9822 43.8893 74.2821 43.2549 74.2821 42.3784C74.2821 41.473 74.0111 40.8271 73.469 40.4407C72.9269 40.0543 72.085 39.864 70.9374 39.864H68.0251V44.8927ZM68.0251 47.1302V52.2338H71.4794C72.1138 52.2338 72.6443 52.1589 73.0711 52.0147C73.4978 51.8705 73.8381 51.6802 74.0976 51.438C74.3571 51.1958 74.5416 50.919 74.6569 50.5961C74.7723 50.2731 74.83 49.9329 74.83 49.5753C74.83 49.2005 74.7665 48.8602 74.6397 48.5604C74.5128 48.2605 74.3167 48.001 74.0457 47.7876C73.7746 47.5742 73.4286 47.4128 73.0076 47.2974C72.5867 47.1879 72.0734 47.1302 71.4737 47.1302H68.0251Z" fill="#F5C541"/>
<path d="M86.306 42.2148C87.2748 42.2148 88.1572 42.3648 88.9472 42.6589C89.7373 42.9588 90.412 43.3797 90.9656 43.9218C91.525 44.4697 91.9517 45.1328 92.2574 45.9229C92.563 46.7072 92.7129 47.5895 92.7129 48.5583C92.7129 49.5387 92.563 50.421 92.2574 51.2053C91.9517 51.9896 91.525 52.6643 90.9656 53.2179C90.4062 53.7715 89.7373 54.1983 88.9472 54.4924C88.1572 54.7865 87.2806 54.9364 86.306 54.9364C85.3372 54.9364 84.4549 54.7865 83.6591 54.4924C82.8632 54.1983 82.1885 53.7715 81.6291 53.2179C81.0698 52.6643 80.6315 51.9953 80.3258 51.2053C80.0202 50.421 79.8645 49.5329 79.8645 48.5583C79.8645 47.5895 80.0202 46.7072 80.3258 45.9229C80.6315 45.1386 81.0698 44.4697 81.6291 43.9218C82.1885 43.374 82.869 42.953 83.6591 42.6589C84.4549 42.3648 85.3314 42.2148 86.306 42.2148ZM86.306 52.6585C87.3844 52.6585 88.186 52.3125 88.705 51.6205C89.224 50.9285 89.4835 49.9193 89.4835 48.5872C89.4835 47.255 89.224 46.2401 88.705 45.5423C88.186 44.8445 87.3844 44.4927 86.306 44.4927C85.2103 44.4927 84.3972 44.8445 83.8724 45.5481C83.3477 46.2516 83.0881 47.2666 83.0881 48.5872C83.0881 49.9078 83.3477 50.9227 83.8724 51.6147C84.3972 52.3068 85.2103 52.6585 86.306 52.6585Z" fill="#F5C541"/>
<path d="M97.2917 48.3902L93.0242 42.4043H96.0345C96.2652 42.4043 96.4324 42.4331 96.542 42.4966C96.6515 42.5542 96.7496 42.658 96.8303 42.7907L99.5523 46.9197C99.5926 46.7813 99.6445 46.6487 99.708 46.5103C99.7714 46.3719 99.8464 46.2392 99.9444 46.1008L102.136 42.8483C102.24 42.6984 102.343 42.5831 102.453 42.5139C102.563 42.4389 102.695 42.4043 102.857 42.4043H105.729L101.45 48.2576L105.907 54.7626H102.897C102.666 54.7626 102.488 54.7049 102.349 54.5953C102.211 54.4858 102.095 54.3531 102.003 54.2089L99.2408 49.9127C99.1659 50.201 99.0621 50.4432 98.9237 50.6335L96.4901 54.2089C96.3978 54.3474 96.2825 54.4742 96.1498 54.5896C96.0172 54.7049 95.8442 54.7626 95.6424 54.7626H92.8455L97.2917 48.3902Z" fill="#F5C541"/>
<path d="M112.32 42.2148C113.139 42.2148 113.894 42.3417 114.581 42.5897C115.267 42.8377 115.861 43.201 116.357 43.6796C116.853 44.1583 117.245 44.7407 117.522 45.4385C117.799 46.1305 117.937 46.9263 117.937 47.8144C117.937 48.0393 117.925 48.2239 117.908 48.3738C117.885 48.5237 117.851 48.6391 117.793 48.7256C117.735 48.8121 117.666 48.8697 117.574 48.9043C117.481 48.9389 117.36 48.9562 117.222 48.9562H109.195C109.287 50.2249 109.644 51.1534 110.273 51.7474C110.896 52.3414 111.726 52.6412 112.753 52.6412C113.26 52.6412 113.698 52.5836 114.062 52.474C114.431 52.3644 114.748 52.2376 115.025 52.0991C115.302 51.9607 115.538 51.8396 115.746 51.7243C115.953 51.6147 116.155 51.5571 116.345 51.5571C116.472 51.5571 116.582 51.5801 116.674 51.632C116.766 51.6782 116.847 51.7474 116.916 51.8339L117.827 52.918C117.481 53.3044 117.095 53.6274 116.663 53.8869C116.23 54.1464 115.78 54.354 115.313 54.5154C114.846 54.6711 114.367 54.7807 113.883 54.8441C113.399 54.9076 112.926 54.9422 112.47 54.9422C111.565 54.9422 110.729 54.798 109.95 54.5154C109.171 54.2329 108.497 53.8119 107.926 53.2525C107.349 52.6931 106.899 52.0069 106.571 51.1822C106.242 50.3576 106.075 49.406 106.075 48.3219C106.075 47.4799 106.219 46.6841 106.507 45.946C106.796 45.202 107.205 44.5562 107.741 44.0083C108.278 43.4605 108.929 43.0222 109.702 42.6993C110.481 42.3763 111.351 42.2148 112.32 42.2148ZM112.384 44.3486C111.472 44.3486 110.757 44.5908 110.244 45.0809C109.731 45.5711 109.402 46.2631 109.258 47.1628H115.134C115.134 46.7764 115.077 46.4131 114.967 46.0728C114.858 45.7326 114.69 45.4327 114.46 45.1732C114.229 44.9137 113.946 44.7119 113.6 44.5677C113.254 44.4235 112.851 44.3486 112.384 44.3486Z" fill="#F5C541"/>
<path d="M128.017 44.8175C127.931 44.9444 127.844 45.0367 127.752 45.0886C127.66 45.1405 127.539 45.1693 127.4 45.1693C127.25 45.1693 127.083 45.1289 126.91 45.0482C126.737 44.9675 126.535 44.8752 126.31 44.7772C126.08 44.6791 125.82 44.5869 125.532 44.5061C125.243 44.4254 124.897 44.385 124.5 44.385C123.882 44.385 123.398 44.5119 123.046 44.7599C122.695 45.0078 122.516 45.3365 122.516 45.7345C122.516 45.9997 122.608 46.2246 122.787 46.4034C122.966 46.5822 123.208 46.7436 123.508 46.8763C123.807 47.0147 124.148 47.1358 124.528 47.2454C124.909 47.3549 125.295 47.4703 125.693 47.6029C126.091 47.7298 126.478 47.8797 126.858 48.0412C127.239 48.2084 127.579 48.416 127.879 48.6698C128.179 48.9235 128.421 49.2234 128.6 49.5809C128.778 49.9327 128.871 50.3594 128.871 50.8554C128.871 51.4494 128.755 51.9972 128.531 52.4989C128.3 53.0006 127.971 53.4331 127.533 53.8022C127.095 54.1655 126.552 54.4539 125.907 54.6557C125.261 54.8575 124.523 54.9613 123.686 54.9613C123.237 54.9613 122.804 54.921 122.377 54.846C121.951 54.771 121.541 54.6615 121.149 54.5288C120.757 54.3904 120.394 54.2347 120.059 54.0444C119.725 53.8599 119.43 53.658 119.177 53.4447L119.892 52.3086C119.984 52.1702 120.094 52.0664 120.221 51.9972C120.347 51.928 120.509 51.8876 120.699 51.8876C120.895 51.8876 121.074 51.9395 121.247 52.0433C121.42 52.1471 121.622 52.2625 121.847 52.3778C122.077 52.4989 122.343 52.6085 122.648 52.7123C122.954 52.8161 123.346 52.868 123.819 52.868C124.188 52.868 124.511 52.8276 124.776 52.7411C125.042 52.6546 125.261 52.545 125.434 52.4124C125.607 52.274 125.734 52.1183 125.814 51.9395C125.895 51.7608 125.935 51.5705 125.935 51.3802C125.935 51.0918 125.843 50.8554 125.664 50.6708C125.486 50.4863 125.243 50.3248 124.944 50.1864C124.644 50.048 124.303 49.9269 123.917 49.8174C123.531 49.7078 123.139 49.5924 122.741 49.4598C122.337 49.3329 121.945 49.183 121.564 49.01C121.178 48.837 120.838 48.6179 120.538 48.3526C120.238 48.0873 119.996 47.7644 119.817 47.378C119.638 46.9916 119.546 46.5245 119.546 45.9824C119.546 45.4749 119.65 44.9963 119.863 44.535C120.076 44.0794 120.382 43.6757 120.791 43.3355C121.201 42.9952 121.714 42.7242 122.325 42.5166C122.937 42.3147 123.646 42.2109 124.448 42.2109C125.341 42.2109 126.155 42.3493 126.893 42.6319C127.625 42.9145 128.236 43.2836 128.727 43.7391L128.017 44.8175Z" fill="#F5C541"/>
<defs>
<linearGradient id="paint0_linear_391_141" x1="-45.9424" y1="-21.139" x2="123.094" y2="94.5974" gradientUnits="userSpaceOnUse">
<stop stop-color="#DF9229"/>
<stop offset="0.514" stop-color="#F5C541"/>
</linearGradient>
<linearGradient id="paint1_linear_391_141" x1="-40.6572" y1="-28.8587" x2="128.379" y2="86.8776" gradientUnits="userSpaceOnUse">
<stop stop-color="#DF9229"/>
<stop offset="0.514" stop-color="#F5C541"/>
</linearGradient>
<linearGradient id="paint2_linear_391_141" x1="-47.1901" y1="-19.3175" x2="121.846" y2="96.4189" gradientUnits="userSpaceOnUse">
<stop stop-color="#DF9229"/>
<stop offset="0.514" stop-color="#F5C541"/>
</linearGradient>
<linearGradient id="paint3_linear_391_141" x1="-42.8184" y1="-25.7028" x2="126.218" y2="90.0336" gradientUnits="userSpaceOnUse">
<stop stop-color="#DF9229"/>
<stop offset="0.514" stop-color="#F5C541"/>
</linearGradient>
</defs>
</svg>
