<svg width="40" height="40" viewBox="0 0 40 40" fill="none" xmlns="http://www.w3.org/2000/svg">
<path d="M30 37.5C28.62 37.5 27.5 36.375 27.5 35C27.5 33.625 28.625 32.5 30 32.5H32.5V30C32.5 28.625 33.625 27.5 35 27.5C36.375 27.5 37.5 28.625 37.5 30V35C37.5 36.375 36.375 37.5 35 37.5H30ZM10 37.5C11.38 37.5 12.5 36.375 12.5 35C12.5 33.625 11.375 32.5 10 32.5H7.5V30C7.5 28.625 6.375 27.5 5 27.5C3.625 27.5 2.5 28.625 2.5 30V35C2.5 36.375 3.625 37.5 5 37.5H10ZM27.5 12.5H12.5C11.837 12.5 11.2011 12.7634 10.7322 13.2322C10.2634 13.7011 10 14.337 10 15V25C10 25.663 10.2634 26.2989 10.7322 26.7678C11.2011 27.2366 11.837 27.5 12.5 27.5H27.5C28.163 27.5 28.7989 27.2366 29.2678 26.7678C29.7366 26.2989 30 25.663 30 25V15C30 14.337 29.7366 13.7011 29.2678 13.2322C28.7989 12.7634 28.163 12.5 27.5 12.5ZM30 2.5C28.62 2.5 27.5 3.625 27.5 5C27.5 6.375 28.625 7.5 30 7.5H32.5V10C32.5 11.375 33.625 12.5 35 12.5C36.375 12.5 37.5 11.375 37.5 10V5C37.5 3.625 36.375 2.5 35 2.5H30ZM10 2.5C11.38 2.5 12.5 3.625 12.5 5C12.5 6.375 11.375 7.5 10 7.5H7.5V10C7.5 11.375 6.375 12.5 5 12.5C3.625 12.5 2.5 11.375 2.5 10V5C2.5 3.625 3.625 2.5 5 2.5H10Z" fill="#F5C542"/>
</svg>
