<svg width="40" height="40" viewBox="0 0 40 40" fill="none" xmlns="http://www.w3.org/2000/svg">
<path d="M9.29158 3.45688C9.50378 3.5589 9.68284 3.71878 9.80815 3.91811C9.93347 4.11743 9.99994 4.3481 9.99992 4.58354C9.99992 5.96688 10.5199 6.76354 11.1716 7.73354L11.2199 7.80354C11.7733 8.62688 12.4999 9.70521 12.4999 11.2502C12.4999 12.4658 12.017 13.6316 11.1575 14.4911C10.2979 15.3507 9.13216 15.8335 7.91658 15.8335C6.70101 15.8335 5.53522 15.3507 4.67568 14.4911C3.81614 13.6316 3.33325 12.4658 3.33325 11.2502C3.33325 10.6369 3.33325 9.58188 3.97159 8.22021C4.59659 6.88688 5.78492 5.35521 7.96825 3.60688C8.15227 3.45968 8.37414 3.3675 8.60828 3.34096C8.84242 3.31442 9.07929 3.35461 9.29158 3.45688ZM7.91658 18.3335C9.32031 18.336 10.6928 17.9193 11.8583 17.1369C12.2933 18.3602 12.4999 19.9869 12.4999 22.0919C12.4999 24.9452 12.1166 28.3719 11.4916 31.1085C11.1816 32.4685 10.7966 33.7235 10.3383 34.6652C10.1229 35.1343 9.83613 35.5672 9.48825 35.9485C9.14492 36.3002 8.61659 36.6752 7.91658 36.6752C7.21659 36.6752 6.68825 36.3002 6.34659 35.9485C5.99871 35.5672 5.71198 35.1343 5.49659 34.6652C5.03659 33.7219 4.65159 32.4685 4.34159 31.1069C3.69089 28.1449 3.35293 25.1228 3.33325 22.0902C3.33325 19.9869 3.53992 18.3602 3.97492 17.1369C5.14037 17.9193 6.51286 18.336 7.91658 18.3335ZM14.1399 23.4619C14.942 23.8144 15.7947 24.0383 16.6666 24.1252V20.4169C16.6666 19.7055 16.8067 19.0012 17.0789 18.344C17.3511 17.6868 17.7501 17.0897 18.2531 16.5867C19.2689 15.5709 20.6467 15.0002 22.0833 15.0002H25.7916C25.6547 13.636 25.1833 12.3266 24.4193 11.1882C23.6552 10.0498 22.6221 9.11747 21.4115 8.47391C20.2008 7.83035 18.8501 7.49543 17.4791 7.49886C16.108 7.50228 14.759 7.84394 13.5516 8.49354C13.2922 7.94634 12.9866 7.42223 12.6383 6.92688L12.5549 6.80354L12.2566 6.35021C13.8443 5.472 15.6272 5.00664 17.4416 4.99685C19.256 4.98706 21.0438 5.43314 22.6409 6.29417C24.2381 7.15519 25.5933 8.40357 26.5824 9.92473C27.5715 11.4459 28.1626 13.1911 28.3016 15.0002H31.2499C31.9612 15.0002 32.6656 15.1403 33.3228 15.4125C33.98 15.6847 34.5771 16.0837 35.0801 16.5867C35.5831 17.0897 35.9821 17.6868 36.2543 18.344C36.5265 19.0012 36.6666 19.7055 36.6666 20.4169V29.5835C36.6666 30.2949 36.5265 30.9992 36.2543 31.6564C35.9821 32.3136 35.5831 32.9107 35.0801 33.4137C34.5771 33.9167 33.98 34.3157 33.3228 34.5879C32.6656 34.8601 31.9612 35.0002 31.2499 35.0002H22.0833C20.6467 35.0002 19.2689 34.4295 18.2531 33.4137C17.2373 32.3979 16.6666 31.0201 16.6666 29.5835V26.6352C15.7459 26.565 14.838 26.3774 13.9649 26.0769C14.0483 25.1935 14.1083 24.3135 14.1399 23.4619ZM31.2499 17.5002H28.2066C27.8522 19.7706 26.7857 21.8696 25.1608 23.4945C23.536 25.1193 21.4369 26.1858 19.1666 26.5402V29.5835C19.1666 31.1935 20.4733 32.5002 22.0833 32.5002H31.2499C32.0235 32.5002 32.7653 32.1929 33.3123 31.6459C33.8593 31.099 34.1666 30.3571 34.1666 29.5835V20.4169C34.1666 19.6433 33.8593 18.9015 33.3123 18.3545C32.7653 17.8075 32.0235 17.5002 31.2499 17.5002ZM19.1666 24.0002C20.7672 23.6716 22.2362 22.8806 23.3916 21.7252C24.5469 20.5698 25.338 19.1008 25.6666 17.5002H22.0833C21.3097 17.5002 20.5678 17.8075 20.0209 18.3545C19.4739 18.9015 19.1666 19.6433 19.1666 20.4169V24.0002Z" fill="#F5C542"/>
</svg>
