<svg width="40" height="40" viewBox="0 0 40 40" fill="none" xmlns="http://www.w3.org/2000/svg">
<g clip-path="url(#clip0_1368_854)">
<path d="M39 27.5H38V19.0547C38 18.0625 37.6813 17.1094 37.1188 16.4062L30.875 8.60156C30.3125 7.89844 29.55 7.5 28.7563 7.5H26V3.75C26 1.67969 24.6562 0 23 0H7C5.34375 0 4 1.67969 4 3.75V7.5H0.5C0.225 7.5 0 7.78125 0 8.125V9.375C0 9.71875 0.225 10 0.5 10H17.5C17.775 10 18 10.2812 18 10.625V11.875C18 12.2188 17.775 12.5 17.5 12.5H2.5C2.225 12.5 2 12.7812 2 13.125V14.375C2 14.7188 2.225 15 2.5 15H15.5C15.775 15 16 15.2812 16 15.625V16.875C16 17.2188 15.775 17.5 15.5 17.5H0.5C0.225 17.5 0 17.7812 0 18.125V19.375C0 19.7188 0.225 20 0.5 20H13.5C13.775 20 14 20.2812 14 20.625V21.875C14 22.2188 13.775 22.5 13.5 22.5H4V32.5C4 36.6406 6.6875 40 10 40C13.3125 40 16 36.6406 16 32.5H24C24 36.6406 26.6875 40 30 40C33.3125 40 36 36.6406 36 32.5H39C39.55 32.5 40 31.9375 40 31.25V28.75C40 28.0625 39.55 27.5 39 27.5ZM10 36.25C8.34375 36.25 7 34.5703 7 32.5C7 30.4297 8.34375 28.75 10 28.75C11.6562 28.75 13 30.4297 13 32.5C13 34.5703 11.6562 36.25 10 36.25ZM30 36.25C28.3438 36.25 27 34.5703 27 32.5C27 30.4297 28.3438 28.75 30 28.75C31.6562 28.75 33 30.4297 33 32.5C33 34.5703 31.6562 36.25 30 36.25ZM35 20H26V11.25H28.7563L35 19.0547V20Z" fill="#F5C542"/>
</g>
<defs>
<clipPath id="clip0_1368_854">
<rect width="40" height="40" fill="white"/>
</clipPath>
</defs>
</svg>
